<?xml version="1.0" encoding="UTF-8" standalone="no"?>
<svg
   version="1.1"
   id="agrarian"
   width="15"
   height="15"
   viewBox="0 0 90 90"
   sodipodi:docname="agrarian.svg"
   inkscape:version="1.1.1 (3bf5ae0d25, 2021-09-20)"
   xmlns:inkscape="http://www.inkscape.org/namespaces/inkscape"
   xmlns:sodipodi="http://sodipodi.sourceforge.net/DTD/sodipodi-0.dtd"
   xmlns="http://www.w3.org/2000/svg"
   xmlns:svg="http://www.w3.org/2000/svg">
  <defs
     id="defs7" />
  <sodipodi:namedview
     id="namedview5"
     pagecolor="#ffffff"
     bordercolor="#666666"
     borderopacity="1.0"
     inkscape:pageshadow="2"
     inkscape:pageopacity="0.0"
     inkscape:pagecheckerboard="0"
     showgrid="false"
     inkscape:zoom="29.1"
     inkscape:cx="11.305842"
     inkscape:cy="14.072165"
     inkscape:window-width="1920"
     inkscape:window-height="1137"
     inkscape:window-x="-8"
     inkscape:window-y="-8"
     inkscape:window-maximized="1"
     inkscape:current-layer="agrarian" />
  <path
     fill="currentColor"
     d="m 74.309257,54.504192 c -6.839814,0 -12.38487,5.545028 -12.38487,12.384872 0,6.839863 5.545056,12.384871 12.38487,12.384871 6.839817,0 12.384881,-5.545008 12.384881,-12.384871 0,-6.839844 -5.545064,-12.384872 -12.384881,-12.384872 z m 0,15.762552 c -1.861962,0 -3.377687,-1.515716 -3.377687,-3.37768 0,-1.861963 1.515725,-3.377707 3.377687,-3.377707 1.861925,0 3.377698,1.515744 3.377698,3.377707 0,1.861964 -1.515773,3.37768 -3.377698,3.37768 z M 85.568263,29.734441 h -9.007222 v -5.657647 c 0,-1.987215 0.661485,-3.906865 1.850699,-5.466234 0.622089,-0.816276 0.499636,-1.978765 -0.185743,-2.742971 L 75.18182,12.465973 c -0.937297,-1.048492 -2.578308,-0.973901 -3.476209,0.109774 -2.662744,3.211624 -4.15174,7.280336 -4.15174,11.501047 v 5.657647 H 53.152215 L 45.258266,11.317557 A 6.7432825,6.7432825 0 0 0 39.047541,7.2164749 H 20.266158 c -3.725315,0 -6.755385,3.0300721 -6.755385,6.7553861 v 20.620815 c -1.214561,-0.947157 -2.949854,-0.90916 -4.0658976,0.20689 L 5.066538,39.177905 c -1.2089314,1.208925 -1.2089314,3.169404 0,4.378322 l 0.7121318,0.712152 C 5.0763926,45.5716 4.5176661,46.917032 4.1024889,48.31035 H 3.0962185 C 1.3862616,48.31035 0,49.696631 0,51.406565 v 6.192442 c 0,1.709936 1.3862616,3.096219 3.0962185,3.096219 h 1.0048639 c 0.4165837,1.394697 0.9739006,2.738744 1.6761792,4.043353 l -0.7121281,0.71217 c -1.2089345,1.208916 -1.2089345,3.169384 0,4.378313 l 4.3783325,4.378341 c 1.208937,1.208931 3.169398,1.208931 4.378337,0 l 0.71213,-0.712137 c 1.303222,0.702256 2.648676,1.260994 4.04197,1.676192 v 1.006253 c 0,1.709951 1.386256,3.096224 3.096217,3.096224 h 6.192446 c 1.709969,0 3.096216,-1.386273 3.096216,-3.096224 v -1.004846 c 1.393274,-0.415186 2.738749,-0.973918 4.041978,-1.676213 l 0.712133,0.712148 c 1.208918,1.208947 3.16939,1.208947 4.378329,0 l 4.378306,-4.378332 c 1.208957,-1.208935 1.208957,-3.169391 0,-4.378333 l -0.712104,-0.712144 c 0.702285,-1.303207 1.261021,-2.648665 1.676184,-4.041957 h 1.007656 c 1.709948,0 3.096215,-1.38629 3.096215,-3.096218 v -0.844419 h 11.334977 c 3.083562,-4.079984 7.926347,-6.755392 13.434801,-6.755392 2.623333,0 5.076396,0.648781 7.290169,1.716998 l 7.152269,-7.152285 c 0.844392,-0.844425 1.318709,-1.990038 1.318709,-3.184873 v -7.143822 c 0.0041,-2.486826 -2.015316,-4.503582 -4.502141,-4.503582 z M 24.769739,65.763145 c -6.217764,0 -11.258966,-5.041196 -11.258966,-11.258953 0,-6.217798 5.041202,-11.258989 11.258966,-11.258989 6.21778,0 11.258989,5.041191 11.258989,11.258989 0,6.217757 -5.041209,11.258953 -11.258989,11.258953 z M 27.865971,29.734441 H 22.517962 V 16.223658 h 15.043382 l 5.791351,13.510783 z"
     id="path2"
     style="stroke-width:0.140735" />
</svg>
