<?xml version="1.0" encoding="UTF-8" standalone="no"?>
<!-- Generator: Adobe Illustrator 15.0.0, SVG Export Plug-In . SVG Version: 6.00 Build 0)  -->

<svg
   version="1.1"
   x="0px"
   y="0px"
   width="64"
   height="64"
   viewBox="0 0 64 64"
   enable-background="new 0 0 580 580"
   xml:space="preserve"
   id="svg23"
   sodipodi:docname="baby_goods.svg"
   inkscape:version="1.2.2 (732a01da63, 2022-12-09)"
   xmlns:inkscape="http://www.inkscape.org/namespaces/inkscape"
   xmlns:sodipodi="http://sodipodi.sourceforge.net/DTD/sodipodi-0.dtd"
   xmlns="http://www.w3.org/2000/svg"
   xmlns:svg="http://www.w3.org/2000/svg"><defs
   id="defs27">
	
</defs><sodipodi:namedview
   id="namedview25"
   pagecolor="#ffffff"
   bordercolor="#666666"
   borderopacity="1.0"
   inkscape:showpageshadow="2"
   inkscape:pageopacity="0.0"
   inkscape:pagecheckerboard="0"
   inkscape:deskcolor="#d1d1d1"
   showgrid="false"
   inkscape:zoom="6.5448276"
   inkscape:cx="-27.502634"
   inkscape:cy="31.169652"
   inkscape:window-width="1920"
   inkscape:window-height="1129"
   inkscape:window-x="-8"
   inkscape:window-y="-8"
   inkscape:window-maximized="1"
   inkscape:current-layer="svg23" />

<g
   id="g20"
   style="fill:#000000;fill-opacity:1;stroke:none;stroke-width:0.996392;stroke-dasharray:none;stroke-opacity:1"
   transform="matrix(0.11127574,0,0,0.11127574,-0.29577278,0.05168787)">
		<g
   id="g10"
   style="fill:#000000;fill-opacity:1;stroke:none;stroke-width:0.996392;stroke-dasharray:none;stroke-opacity:1">
			<path
   fill="#FFFFFF"
   d="m 419.546,162.322 66.05,0.069 26.038,0.027 c 1.662,-1.89 2.644,-4.184 2.644,-6.662 0,-6.449 -6.601,-11.678 -14.74,-11.678 h -1.654 c 0.818,-2.866 1.264,-5.852 1.264,-8.926 0,-16.743 -12.841,-30.993 -30.793,-36.348 0.311,-1.872 0.479,-3.827 0.479,-5.842 0,-13.366 -7.263,-24.201 -16.222,-24.201 -8.959,0 -16.223,10.834 -16.223,24.201 0,2.015 0.168,3.971 0.479,5.842 -17.952,5.356 -30.793,19.605 -30.793,36.348 0,3.074 0.446,6.06 1.263,8.926 h -1.652 c -8.141,0 -14.741,5.229 -14.741,11.678 0,2.423 0.933,4.673 2.527,6.539 z"
   id="path6"
   style="fill:#000000;fill-opacity:1;stroke:none;stroke-width:0.996392;stroke-dasharray:none;stroke-opacity:1" />
			<path
   fill="#FFFFFF"
   d="m 513.354,171.42 -1.721,-0.002 -26.038,-0.027 -66.05,-0.069 -26.075,-0.027 -1.45,-10e-4 c -6.505,5.318 -10.656,13.405 -10.656,22.462 v 49.403 h 55.079 v 5 h -55.079 v 36.931 h 55.079 v 5 h -55.079 v 36.93 h 55.079 v 5 h -55.079 v 36.932 h 55.079 v 5 h -55.079 v 36.93 h 55.079 v 5 h -55.079 v 66.357 c 0,16.018 12.982,29 29,29 h 84.492 c 16.018,0 29,-12.982 29,-29 V 193.756 c 0,-8.986 -4.086,-17.017 -10.502,-22.336 z"
   id="path8"
   style="fill:#000000;fill-opacity:1;stroke:none;stroke-width:0.996392;stroke-dasharray:none;stroke-opacity:1" />
		</g>
		<g
   id="g18"
   style="fill:#000000;fill-opacity:1;stroke:none;stroke-width:0.996392;stroke-dasharray:none;stroke-opacity:1">
			<path
   fill="#FFFFFF"
   d="m 269.357,269.539 c -4.325,8.742 -13.231,18.24 -25.613,27.531 -1.406,1.055 -2.874,2.105 -4.37,3.154 -15.788,11.074 -36.342,21.678 -59.693,30.113 -23.35,8.434 -45.938,13.412 -65.159,14.982 -1.819,0.148 -3.619,0.279 -5.376,0.365 -15.462,0.768 -28.382,-0.848 -37.293,-4.809 -6.163,-2.74 -10.422,-6.598 -12.225,-11.588 l 7.836,21.693 c 0.244,0.676 0.533,1.33 0.865,1.967 l -0.137,0.053 1.661,4.6 c 0.244,0.674 0.533,1.33 0.865,1.967 4.848,9.264 18.923,14.137 38.353,14.584 0.144,7.283 1.439,14.588 4.011,21.709 14.15,39.176 61.482,58.109 105.512,42.207 44.027,-15.902 68.334,-60.713 54.184,-99.889 -2.572,-7.119 -6.243,-13.566 -10.788,-19.262 14.66,-12.76 22.375,-25.504 20.183,-35.726 -0.152,-0.702 -0.349,-1.39 -0.593,-2.065 l -1.662,-4.601 -0.134,0.049 c -0.153,-0.702 -0.35,-1.389 -0.594,-2.065 l -7.836,-21.695 c 1.804,4.992 0.991,10.68 -1.997,16.726 z m -64.831,129.582 c -22.554,8.146 -46.105,0.373 -52.499,-17.33 -1.4,-3.877 -1.863,-7.912 -1.496,-11.938 12.531,-2.58 25.825,-6.311 39.375,-11.205 13.55,-4.895 26.161,-10.52 37.448,-16.543 2.855,2.861 5.079,6.262 6.479,10.139 6.394,17.701 -6.753,38.73 -29.307,46.877 z"
   id="path12"
   style="fill:#000000;fill-opacity:1;stroke:none;stroke-width:0.996392;stroke-dasharray:none;stroke-opacity:1" />
			<path
   fill="#FFFFFF"
   d="m 267.526,243.291 c -8.835,-14.427 -41.241,-17.466 -81.061,-8.966 5.157,4.085 9.711,4.18 9.878,4.182 l 0.473,-0.005 0.459,0.119 c 11.337,2.949 18.225,8.104 20.47,15.317 3.544,11.39 -6.323,22.983 -6.745,23.47 l -0.212,0.245 -0.252,0.201 c -0.579,0.463 -14.443,11.441 -37.415,19.74 -13.485,4.869 -27.321,7.791 -41.125,8.68 -16.134,1.039 -25.908,-2.004 -29.877,-9.309 -5.715,-10.51 4.217,-24.398 5.368,-25.948 l 0.237,-0.332 0.347,-0.28 c 0.152,-0.131 3.592,-3.111 4.951,-9.536 -36.009,18.896 -58.954,41.918 -56.534,58.649 l -0.344,0.125 1.094,3.029 c 1.803,4.992 6.062,8.848 12.226,11.588 8.911,3.963 21.832,5.578 37.293,4.811 3.568,-0.18 7.275,-0.49 11.092,-0.92 17.918,-2.021 38.371,-6.818 59.442,-14.43 21.073,-7.611 39.87,-16.99 54.942,-26.887 3.213,-2.107 6.262,-4.238 9.121,-6.379 12.382,-9.291 21.287,-18.789 25.612,-27.531 2.988,-6.047 3.802,-11.733 1.999,-16.727 l -1.095,-3.03 z"
   id="path14"
   style="fill:#000000;fill-opacity:1;stroke:none;stroke-width:0.996392;stroke-dasharray:none;stroke-opacity:1" />
			<path
   fill="#FFFFFF"
   d="m 116.891,258.878 c -1.078,9.769 -6.582,14.238 -6.582,14.238 0,0 -24.224,32.591 21.461,29.647 15.228,-0.98 28.813,-4.383 40.157,-8.48 22.688,-8.193 36.413,-19.175 36.413,-19.175 0,0 21.154,-24.471 -11.949,-33.084 0,0 -7.096,0.081 -14.171,-6.755 -5.989,-5.786 -11.964,-16.523 -13.609,-36.502 -3.586,-43.583 -13.329,-55.023 -40.231,-51.852 l -13.225,4.777 -13.307,4.807 c -22.721,14.751 -22.904,29.777 2.187,65.592 11.508,16.427 13.769,28.507 12.856,36.787 z"
   id="path16"
   style="fill:#000000;fill-opacity:1;stroke:none;stroke-width:0.996392;stroke-dasharray:none;stroke-opacity:1" />
		</g>
	</g>
</svg>
