<svg xmlns="http://www.w3.org/2000/svg" viewBox="0 0 448 512"><!--!Font Awesome Free 6.7.2 by @fontawesome - https://fontawesome.com License - https://fontawesome.com/license/free Copyright 2025 Fonticons, Inc.--><path d="M368 96h-48V56c0-13.3-10.7-24-24-24H24C10.7 32 0 42.7 0 56v400c0 13.3 10.7 24 24 24h272c13.3 0 24-10.7 24-24v-42.1l80.6-36C429.4 365.1 448 336.4 448 304.9V176c0-44.1-35.9-80-80-80zm16 208.9a16 16 0 0 1 -9.5 14.6L320 343.8V160h48c8.8 0 16 7.2 16 16v128.9zM208 384c-8.8 0-16-7.2-16-16V144c0-8.8 7.2-16 16-16s16 7.2 16 16v224c0 8.8-7.2 16-16 16zm-96 0c-8.8 0-16-7.2-16-16V144c0-8.8 7.2-16 16-16s16 7.2 16 16v224c0 8.8-7.2 16-16 16z"/></svg>