<?xml version="1.0" encoding="UTF-8" standalone="no"?>
<svg
   xmlns:dc="http://purl.org/dc/elements/1.1/"
   xmlns:cc="http://creativecommons.org/ns#"
   xmlns:rdf="http://www.w3.org/1999/02/22-rdf-syntax-ns#"
   xmlns:svg="http://www.w3.org/2000/svg"
   xmlns="http://www.w3.org/2000/svg"
   xmlns:sodipodi="http://sodipodi.sourceforge.net/DTD/sodipodi-0.dtd"
   xmlns:inkscape="http://www.inkscape.org/namespaces/inkscape"
   inkscape:version="1.0 (4035a4fb49, 2020-05-01)"
   sodipodi:docname="bentou.svg"
   xml:space="preserve"
   enable-background="new 0 0 800 800"
   viewBox="0 0 64 64"
   height="64"
   width="64"
   y="0px"
   x="0px"
   id="レイヤー_1"
   version="1.1"><metadata
   id="metadata25"><rdf:RDF><cc:Work
       rdf:about=""><dc:format>image/svg+xml</dc:format><dc:type
         rdf:resource="http://purl.org/dc/dcmitype/StillImage" /><dc:title></dc:title></cc:Work></rdf:RDF></metadata><defs
   id="defs23">
		
		
	</defs><sodipodi:namedview
   inkscape:current-layer="g18"
   inkscape:window-maximized="1"
   inkscape:window-y="-8"
   inkscape:window-x="-8"
   inkscape:cy="49.415386"
   inkscape:cx="39.51363"
   inkscape:zoom="8.2706282"
   showgrid="false"
   id="namedview21"
   inkscape:window-height="1017"
   inkscape:window-width="1920"
   inkscape:pageshadow="2"
   inkscape:pageopacity="0"
   guidetolerance="10"
   gridtolerance="10"
   objecttolerance="10"
   borderopacity="1"
   bordercolor="#666666"
   pagecolor="#ffffff"
   inkscape:document-rotation="0" />
<g
   id="g18">
	<path
   style="fill:#ef8f35;fill-opacity:1;stroke-width:0.0801"
   fill="#ff8c00"
   d="m 63.118843,56.710838 c 0,3.524403 -2.883602,6.408005 -6.408005,6.408005 H 7.369205 c -3.5244024,0 -6.40800433,-2.883602 -6.40800433,-6.408005 V 7.369205 c 0,-3.5244024 2.88360193,-6.40800433 6.40800433,-6.40800433 h 49.341633 c 3.524403,0 6.408005,2.88360193 6.408005,6.40800433 z"
   id="path2" /><path
   fill="none"
   stroke="#ffffff"
   stroke-width="1.9224"
   stroke-miterlimit="10"
   d="m 63.118843,56.710838 c 0,3.524403 -2.883602,6.408005 -6.408005,6.408005 H 7.369205 c -3.5244024,0 -6.40800433,-2.883602 -6.40800433,-6.408005 V 7.369205 c 0,-3.5244024 2.88360193,-6.40800433 6.40800433,-6.40800433 h 49.341633 c 3.524403,0 6.408005,2.88360193 6.408005,6.40800433 z"
   id="path4" />
	<g
   transform="scale(0.08010005)"
   id="g16">
		<path
   id="path8"
   d="m 643.526,334.293 c -31.394,-12.098 -64.756,-22.169 -108.175,-32.656 -0.682,-0.164 -1.388,-0.208 -2.083,-0.129 -10.017,1.134 -20.299,1.709 -30.561,1.709 -7.599,0 -15.604,-0.332 -23.795,-0.986 -2.369,-0.185 -4.646,1.049 -5.771,3.155 -0.479,0.896 -0.995,1.811 -1.579,2.799 -0.867,1.464 -1.071,3.228 -0.562,4.851 0.509,1.624 1.684,2.955 3.23,3.662 22.697,10.379 45.187,21.986 65.038,33.565 2.076,1.211 3.557,3.158 4.169,5.483 0.611,2.325 0.281,4.749 -0.93,6.825 -1.607,2.756 -4.592,4.468 -7.788,4.468 -1.58,0 -3.143,-0.425 -4.521,-1.229 -22.076,-12.877 -47.061,-25.569 -72.252,-36.705 -1.964,-0.868 -4.238,-0.62 -5.968,0.645 -12.398,9.068 -27.06,13.861 -42.398,13.861 -15.21,0 -29.772,-4.72 -42.112,-13.651 -1.73,-1.252 -3.995,-1.49 -5.947,-0.625 -25.036,11.089 -49.844,23.702 -71.741,36.475 -1.378,0.804 -2.948,1.229 -4.541,1.229 -3.221,0 -6.22,-1.712 -7.827,-4.468 -1.22,-2.092 -1.562,-4.526 -0.961,-6.854 0.597,-2.315 2.061,-4.252 4.122,-5.455 20.321,-11.854 41.929,-23.046 64.225,-33.266 1.55,-0.71 2.725,-2.047 3.23,-3.676 0.505,-1.629 0.293,-3.396 -0.582,-4.859 l -0.823,-1.364 c -1.179,-1.945 -2.397,-3.956 -3.255,-5.845 -1.05,-2.315 -3.447,-3.711 -5.979,-3.498 -9.293,0.801 -18.933,1.225 -27.877,1.225 -4.487,0 -9.985,-0.118 -14.006,-0.3 -0.557,-0.026 -1.116,0.027 -1.658,0.156 -56.898,13.513 -98.053,24.158 -127.377,35.458 C 119.179,352.519 99,370.375 99,394 v 259 c 0,10.619 6.363,23.322 17.02,33.979 C 126.678,697.638 139.38,704 150,704 h 520 c 22.856,0 31,-26.345 31,-51 V 394 c 0,-23.787 -9.404,-41.183 -57.474,-59.707 z"
   fill="#ffffff" />
		<path
   id="path10"
   d="m 217.213,260.82 c 26.914,13.376 58.389,20.158 93.551,20.158 17.96,0 37.152,-1.778 57.043,-5.286 3.258,-0.574 6.562,-1.201 9.819,-1.861 2.407,-0.487 4.536,-1.959 5.842,-4.041 1.303,-2.078 1.702,-4.633 1.094,-7.01 C 368.73,200.897 344.935,158.096 311.817,131.93 284.442,110.302 251.315,99.787 210.543,99.787 c -15.667,0 -32.73,1.607 -50.713,4.778 -11.182,1.971 -22.995,4.604 -35.11,7.824 -4.696,1.247 -7.583,6.103 -6.434,10.825 16.243,66.757 49.527,113.054 98.927,137.606 z"
   fill="#ffffff" />
		<path
   id="path12"
   d="m 694.7,112.503 c -11.53,-3.066 -23.348,-5.673 -35.124,-7.749 -17.879,-3.152 -34.86,-4.751 -50.474,-4.751 -40.847,0 -74.061,10.554 -101.54,32.264 -22.422,17.715 -40.283,42.667 -54.605,76.281 -1.052,2.469 -0.337,5.336 1.752,7.021 17.078,13.781 26.873,34.208 26.873,56.041 0,2.108 -0.104,4.265 -0.316,6.594 -0.147,1.62 0.368,3.23 1.431,4.462 1.062,1.232 2.578,1.98 4.202,2.074 5.516,0.316 10.835,0.476 15.81,0.476 36.442,0 69.781,-7.386 99.09,-21.952 48.585,-24.15 82.937,-72.553 99.341,-139.975 1.161,-4.779 -1.667,-9.517 -6.44,-10.786 z"
   fill="#ffffff" />
		<path
   id="path14"
   d="m 402,258.318 c 1.826,7.133 0.629,14.801 -3.284,21.039 -3.913,6.237 -10.296,10.653 -17.513,12.115 -3.427,0.694 -6.882,1.349 -10.271,1.946 l -1.358,0.226 c -2.038,0.351 -3.75,1.727 -4.534,3.641 -0.783,1.914 -0.525,4.095 0.681,5.774 10.151,14.121 26.547,22.552 43.861,22.552 29.775,0 54,-24.224 54,-54 0,-29.776 -24.225,-54 -54,-54 -4.197,0 -8.418,0.5 -12.545,1.486 -1.639,0.392 -3.038,1.454 -3.854,2.928 -0.816,1.474 -0.976,3.223 -0.439,4.82 3.348,9.962 6.462,20.551 9.256,31.473 z"
   fill="#ffffff" />
	</g>
</g>
</svg>
