<?xml version="1.0" encoding="UTF-8" standalone="no"?>
<svg
   viewBox="0 0 30 30"
   version="1.1"
   id="svg40"
   sodipodi:docname="deli.svg"
   inkscape:version="1.3.2 (091e20e, 2023-11-25, custom)"
   xmlns:inkscape="http://www.inkscape.org/namespaces/inkscape"
   xmlns:sodipodi="http://sodipodi.sourceforge.net/DTD/sodipodi-0.dtd"
   xmlns="http://www.w3.org/2000/svg"
   xmlns:svg="http://www.w3.org/2000/svg"
   xmlns:rdf="http://www.w3.org/1999/02/22-rdf-syntax-ns#"
   xmlns:cc="http://creativecommons.org/ns#"
   xmlns:dc="http://purl.org/dc/elements/1.1/">
  <metadata
     id="metadata44">
    <rdf:RDF>
      <cc:Work
         rdf:about="">
        <dc:format>image/svg+xml</dc:format>
        <dc:type
           rdf:resource="http://purl.org/dc/dcmitype/StillImage" />
      </cc:Work>
    </rdf:RDF>
  </metadata>
  <sodipodi:namedview
     pagecolor="#ffffff"
     bordercolor="#666666"
     borderopacity="1"
     objecttolerance="10"
     gridtolerance="10"
     guidetolerance="10"
     inkscape:pageopacity="0"
     inkscape:pageshadow="2"
     inkscape:window-width="1920"
     inkscape:window-height="1129"
     id="namedview42"
     showgrid="false"
     inkscape:zoom="9.5"
     inkscape:cx="14.947368"
     inkscape:cy="15"
     inkscape:window-x="-8"
     inkscape:window-y="-8"
     inkscape:window-maximized="1"
     inkscape:current-layer="svg40"
     inkscape:showpageshadow="2"
     inkscape:pagecheckerboard="0"
     inkscape:deskcolor="#d1d1d1" />
  <defs
     id="defs4">
    <style
       id="style2">.cls-1{fill:#ef9235;}.cls-2{fill:#fff;}</style>
  </defs>
  <path
     class="cls-2"
     d="M 9.753,3.876 3.795,13.02 a 2.223,2.223 0 0 0 1.863,3.438 H 17.574 A 2.223,2.223 0 0 0 19.437,13.02 L 13.479,3.876 a 2.232,2.232 0 0 0 -3.726,0 z"
     id="path8"
     inkscape:connector-curvature="0"
     style="fill:#000000;stroke-width:0.89999998;fill-opacity:1" />
  <path
     class="cls-1"
     d="M 9.033,10.311 H 14.1 a 0.558,0.558 0 0 1 0.558,0.558 v 5.724 H 8.475 v -5.724 a 0.558,0.558 0 0 1 0.558,-0.558 z"
     id="path10"
     inkscape:connector-curvature="0"
     style="fill:#ffffff;stroke-width:0.89999998;fill-opacity:1" />
  <circle
     class="cls-2"
     cx="10.203"
     cy="24.072001"
     r="2.223"
     id="circle12"
     style="fill:#000000;stroke-width:0.89999998;fill-opacity:1" />
  <circle
     class="cls-2"
     cx="13.749"
     cy="25.503"
     r="2.1329999"
     id="circle14"
     style="fill:#000000;stroke-width:0.89999998;fill-opacity:1" />
  <circle
     class="cls-2"
     cx="10.941"
     cy="21.146999"
     r="1.494"
     id="circle16"
     style="fill:#000000;stroke-width:0.89999998;fill-opacity:1" />
  <circle
     class="cls-2"
     cx="14.037001"
     cy="22.569"
     r="3.096"
     id="circle18"
     style="fill:#000000;stroke-width:0.89999998;fill-opacity:1" />
  <circle
     class="cls-2"
     cx="17.601"
     cy="24.837"
     r="2.448"
     id="circle20"
     style="fill:#000000;stroke-width:0.89999998;fill-opacity:1" />
  <circle
     class="cls-2"
     cx="18.132"
     cy="22.334999"
     r="1.9440001"
     id="circle22"
     style="fill:#000000;stroke-width:0.89999998;fill-opacity:1" />
  <circle
     class="cls-2"
     cx="20.67"
     cy="20.787001"
     r="2.1329999"
     id="circle24"
     style="fill:#000000;stroke-width:0.89999998;fill-opacity:1" />
  <circle
     class="cls-2"
     cx="20.886002"
     cy="23.973"
     r="1.4039999"
     id="circle26"
     style="fill:#000000;stroke-width:0.89999998;fill-opacity:1" />
  <circle
     class="cls-2"
     cx="22.802999"
     cy="21.408001"
     r="1.9530001"
     id="circle28"
     style="fill:#000000;stroke-width:0.89999998;fill-opacity:1" />
  <circle
     class="cls-2"
     cx="22.991999"
     cy="18.699001"
     r="2.0879998"
     id="circle30"
     style="fill:#000000;stroke-width:0.89999998;fill-opacity:1" />
  <circle
     class="cls-2"
     cx="24.063"
     cy="16.476"
     r="1.674"
     id="circle32"
     style="fill:#000000;stroke-width:0.89999998;fill-opacity:1" />
  <path
     class="cls-2"
     d="m 24.279,14.163 0.288,-3.339 c 0,-0.324 -0.225,-0.567 -0.495,-0.504 -0.27,0.063 -2.313,0.387 -2.511,0.441 -0.198,0.054 -0.225,0.396 -0.09,0.585 0,0 1.8,2.619 2.016,2.934 0.216,0.315 0.756,0.378 0.792,-0.117 z"
     id="path34"
     inkscape:connector-curvature="0"
     style="fill:#000000;stroke-width:0.89999998;fill-opacity:1" />
  <path
     class="cls-2"
     d="m 25.404,14.667 2.466,-2.439 a 0.423,0.423 0 0 0 0,-0.594 c 0,0 -1.71,-1.008 -2.034,-1.188 a 0.432,0.432 0 0 0 -0.675,0.297 c 0,0.279 -0.396,3.528 -0.396,3.528 a 0.387,0.387 0 0 0 0.639,0.396 z"
     id="path36"
     inkscape:connector-curvature="0"
     style="fill:#000000;stroke-width:0.89999998;fill-opacity:1" />
</svg>
