<?xml version="1.0" encoding="UTF-8"?>
<!-- Generator: Adobe Illustrator 16.0.0, SVG Export Plug-In . SVG Version: 6.00 Build 0)  -->
<!DOCTYPE svg PUBLIC "-//W3C//DTD SVG 1.1//EN" "http://www.w3.org/Graphics/SVG/1.1/DTD/svg11.dtd">
<svg xmlns="http://www.w3.org/2000/svg" xmlns:xlink="http://www.w3.org/1999/xlink" width="128" height="128">
<g transform="translate(128,0) scale(-1,1)">
<path d="M114.02,54.1c-2.33-2.94-5.52-5.11-8.95-7.05c-2.68-1.52-5.12-2.94-8.06-4.73  c-4.13-2.51-7.88-5.75-11.33-8.98c-2.04-1.91-4-3.89-5.97-5.87c-4-4.02-8.15-8.19-12.87-11.77c-5.75-4.35-12.97-6.75-20.4-6.85  c-0.13-0.31-0.21-0.64-0.36-0.94c-2.38-4.73-7.16-7.67-12.46-7.67c-2.16,0-4.32,0.51-6.26,1.49c-6.66,3.35-9.41,11.35-6.42,18.09  c-2,2.24-5.61,6.66-7.15,11.12c-1.26,3.64-1.94,7.99-1.92,12.23c0.02,5.81,0.38,11.63,0.73,17.26c0.49,8.04,1,16.35,0.5,24.54  c-0.05,0.8-0.11,1.68-0.18,2.62c-0.34,4.52-0.72,10.29-0.02,15.61c0.5,5.44,2.42,10.67,6.74,15.53  c11.88,10.79,37.85,14.04,66.55-2.05c26.48-14.84,30.98-30.73,33.27-41.02C121.06,68.41,119.66,61.22,114.02,54.1z"/>
<g>
	<g>
	<defs>
	<path id="D_1" fill="#FFF" d="M92.82,62.77c-10.79,0.37-23.99,4.69-36.12,11.65C45.84,80.66,37.13,88.29,31.88,95.9   c-4.6,6.74-5.89,12.79-3.66,16.69c2.35,4.08,9.38,6.7,18.4,6.84c10.07,0.18,21.66-2.68,31.99-7.92   c10.92-5.53,20.21-13.52,26.1-22.54c5.24-8,6.94-15.67,4.43-20.36C106.98,64.56,101.14,62.49,92.82,62.77z"/>
	</defs>
	<use xlink:href="#D_1" fill="#FFF"/>
	<clipPath id="D_2">
		<use xlink:href="#D_1"/>
	</clipPath>
	<g clip-path="url(#D_2)">
		<defs>
			<path id="D_3" d="M85.82,71.39c4.27,8.49,0.85,18.85-7.65,23.12c-8.5,4.28-18.85,0.86-23.14-7.64    c-4.27-8.49-0.86-18.85,7.64-23.13C71.18,59.46,81.53,62.89,85.82,71.39z"/>
		</defs>
	<use xlink:href="#D_3" fill="#000"/>
		<clipPath id="D_4">
	<use xlink:href="#D_3"/>
		</clipPath>
	</g>
	<g clip-path="url(#D_2)">
		<path fill="#FFF" d="M72.37,83.42c1.34,2.65,0.27,5.89-2.39,7.23c-2.66,1.34-5.89,0.27-7.23-2.39    c-1.33-2.65-0.27-5.89,2.39-7.23C67.8,79.69,71.04,80.76,72.37,83.42z"/>
	</g>
		</g>
	<path fill="#FFF" d="M30.47,7.9c0.99-0.5,2.05-0.75,3.15-0.75c1.31,0,2.55,0.37,3.62,1.01c0.37,0.29,0.63,0.69,0.41,1.19    c-0.15,0.37-0.53,0.58-0.95,0.75c-1.95,0.54-3.83,1.25-5.62,2.11c-0.64,0.28-1.26,0.59-1.87,0.83c-0.96,0.38-2.08,1.09-2.19-0.4    c0-0.09,0.05-0.61,0.14-1.09C27.76,10.02,28.89,8.69,30.47,7.9z   M31.39,50.91c-4.06-13.52-4.3-22.21-2.68-28.18c0.21-0.76,0.11-1.71-0.77-1.01   c-1.83,1.46-4.86,4.09-6.17,6.33c-0.37,0.62-0.58,1.28-0.74,1.97l0,0c0,0-2.32,7.25-0.59,16.86c1.61,9.01,4.25,22.57,1.41,39.42   c-0.19,1.13-0.15,2.82,0.68,1.84c2.09-2.44,6.24-7.25,9.74-10.93c0.2-0.21,0.73-1.04,0.89-1.83   C33.82,72.23,35.07,63.18,31.39,50.91z"/>
	</g>
</g>
</svg>