<?xml version="1.0" encoding="UTF-8" standalone="no"?>
<!-- Generator: Adobe Illustrator 11.0, SVG Export Plug-In  -->
<svg id="svg1931" xmlns:rdf="http://www.w3.org/1999/02/22-rdf-syntax-ns#" xmlns="http://www.w3.org/2000/svg" xml:space="preserve" height="438" width="502" version="1.0" xmlns:cc="http://web.resource.org/cc/" xmlns:dc="http://purl.org/dc/elements/1.1/" viewBox="-0.7 -0.596 512 438"><metadata id="metadata1952"><rdf:RDF><cc:Work rdf:about=""><dc:format>image/svg+xml</dc:format><dc:type rdf:resource="http://purl.org/dc/dcmitype/StillImage"/></cc:Work></rdf:RDF></metadata>
	<g id="g1935" transform="matrix(2.1362 0 0 1.8263 -281.14 -175.72)">
		<polygon id="polygon1945" points="274.57 266.94 207.9 227.92 207.9 266.94 141.23 227.92 141.23 318.56 362.99 318.56 360.25 154.12 343.48 154.12 341.6 266.94 274.57 227.92 274.57 227.92"/>
		<path id="path1947" d="m205.38 128.34c7.78 9.5 19.37 15.26 31.68 15.26 7.2 0 14.26-2.08 20.45-5.76l9.14 9.36c-23.11 16.06-54.65 11.09-71.78-11.37l10.51-7.49z"/>
		<path id="path1949" d="m339.37 142.67l12.75-4.61c-9.65-14.69-26.07-23.69-43.85-23.69-13.18 0-25.78 4.97-35.43 13.83l9.15 8.78c17.06-15.05 43.56-12.46 57.38 5.69z"/>
	</g>
</svg>