<?xml version="1.0" encoding="UTF-8" standalone="no"?>
<!-- Created with Inkscape (http://www.inkscape.org/) -->
<svg width="14" height="14" viewBox="0 0 3.7041665 3.7041668" version="1.1" id="svg5" inkscape:version="1.1 (c68e22c387, 2021-05-23)" sodipodi:docname="fire_lookout_final_14_A.svg" xmlns:inkscape="http://www.inkscape.org/namespaces/inkscape" xmlns:sodipodi="http://sodipodi.sourceforge.net/DTD/sodipodi-0.dtd" xmlns="http://www.w3.org/2000/svg" xmlns:svg="http://www.w3.org/2000/svg">
  <sodipodi:namedview id="namedview7" pagecolor="#ffffff" bordercolor="#666666" borderopacity="1.0" inkscape:pageshadow="2" inkscape:pageopacity="0.0" inkscape:pagecheckerboard="0" inkscape:document-units="mm" showgrid="false" units="px" inkscape:zoom="30.357498" inkscape:cx="9.6022405" inkscape:cy="12.764556" inkscape:window-width="1920" inkscape:window-height="1201" inkscape:window-x="-9" inkscape:window-y="-9" inkscape:window-maximized="1" inkscape:current-layer="layer1"/>
  <defs id="defs2"/>
  <g inkscape:label="Ebene 1" inkscape:groupmode="layer" id="layer1">
    <path id="path10270-6" style="color:#000000;fill:#000000;fill-rule:evenodd;stroke-width:3.77953;-inkscape-stroke:none" d="M 0,0 V 1 H 0.99609375 V 5 H 2 v 9 h 1 v -1 h 2.0000001 v 1 h 1 V 5 h 0.9986632 l -0.00257,-2 h -0.00195 L 7,1 H 8 V 0 Z M 2,1 H 5.9980469 L 6,3 H 2 Z M 3,5 H 5.0000001 V 5.9960938 H 3 Z m 8.5,1.0039062 C 9.7120801,6.6246203 9,8.5039074 9,10.003906 c 0,1.5 0.8724661,2.629881 2,3 -1,-1.629292 -1,-3 0.5,-3.9999998 -0.252461,0.676409 0,1.9999998 0.5,2.4999998 0.215728,-0.200379 0.5,-0.712364 0.5,-1 1,1 0.28145,1.81663 0,2.5 0.54409,-0.279553 1.5,-1 1.5,-2.5 0,-1.4999986 -1,-1.9999998 -1,-3.4999998 -0.691758,0.2996217 -1,1.0000003 -1,1.5 -0.476031,-0.2782796 -1,-1.3767871 -0.5,-2.5 z m 1,6.9999998 H 12 V 14 h 2 l -0.5,-0.996094 z m -1.5,0 H 10 L 9.4960938,14 H 11.498047 L 11.5,13.003906 Z M 3,7 H 5.0000001 V 7.9960938 H 3 Z M 3,9 H 5.0000001 V 9.9960938 H 3 Z m 0,2 h 2.0000001 v 0.996094 H 3 Z" transform="scale(0.26458333)" sodipodi:nodetypes="ccccccccccccccccccccccccccccccscccccscccccccccccccccccccccccccccccc"/>
  </g>
</svg>