<?xml version="1.0" encoding="UTF-8" standalone="no"?>
<svg
   version="1.1"
   id="aerialway"
   width="15"
   height="15"
   viewBox="0 0 15 15"
   sodipodi:docname="motorcycle.svg"
   inkscape:version="1.1.1 (3bf5ae0d25, 2021-09-20)"
   xmlns:inkscape="http://www.inkscape.org/namespaces/inkscape"
   xmlns:sodipodi="http://sodipodi.sourceforge.net/DTD/sodipodi-0.dtd"
   xmlns="http://www.w3.org/2000/svg"
   xmlns:svg="http://www.w3.org/2000/svg">
  <defs
     id="defs7" />
  <sodipodi:namedview
     id="namedview5"
     pagecolor="#ffffff"
     bordercolor="#666666"
     borderopacity="1.0"
     inkscape:pageshadow="2"
     inkscape:pageopacity="0.0"
     inkscape:pagecheckerboard="0"
     showgrid="false"
     inkscape:zoom="32"
     inkscape:cx="9.265625"
     inkscape:cy="9.390625"
     inkscape:window-width="1920"
     inkscape:window-height="1137"
     inkscape:window-x="-8"
     inkscape:window-y="-8"
     inkscape:window-maximized="1"
     inkscape:current-layer="aerialway" />
  <path
     fill="currentColor"
     d="m 12.058169,5.8609519 c -0.34758,-0.00228 -0.678833,0.053653 -0.989089,0.1609627 l -0.767481,-1.280694 h 1.922203 c 0.310264,0 0.559865,-0.249607 0.559865,-0.5598662 V 3.4348658 c 0,-0.3102588 -0.249601,-0.5598657 -0.559865,-0.5598657 h -1.056736 c -0.158641,0 -0.310267,0.067651 -0.41524,0.1842894 L 9.877035,4.0320556 9.3451589,3.1456021 C 9.2425193,2.9776424 9.0605638,2.8750001 8.8646091,2.8750001 H 6.9983867 c -0.2052825,0 -0.3732431,0.1679598 -0.3732431,0.3732442 V 3.621488 c 0,0.2052857 0.1679606,0.3732426 0.3732431,0.3732426 h 1.5489626 l 0.4478949,0.74649 H 5.4097679 C 4.9968671,4.2023486 4.3623515,3.8081094 3.0793274,3.8081094 h -1.294691 c -0.3149247,0 -0.5785286,0.2566061 -0.5715305,0.5715306 0.0047,0.3032606 0.2542727,0.5482023 0.5598661,0.5482023 h 1.3063554 c 0.5715289,0 0.9027814,0.2542715 1.1150655,0.5785297 L 3.9307885,5.9845902 C 3.6275284,5.8936116 3.3032734,5.8516213 2.9673544,5.8632856 1.3973953,5.9192695 0.13069961,7.2046294 0.09337418,8.7769193 0.05605662,10.458852 1.4067262,11.832855 3.0793274,11.832855 c 1.3903326,0 2.5590526,-0.951777 2.8926416,-2.2394624 h 1.9641942 c 0.3195919,0 0.5738636,-0.2659385 0.5598666,-0.5855276 C 8.4470523,7.90913 8.9042673,6.8220557 9.8070465,6.0918973 L 10.098649,6.5771147 C 9.4548009,7.1299822 9.0465654,7.951118 9.0535612,8.8679003 c 0.011656,1.6236117 1.3343518,2.9509647 2.9579658,2.9649547 1.670266,0.0163 3.02794,-1.341343 3.01394,-3.0116143 C 15.009149,7.197632 13.681793,5.872616 12.058169,5.8609519 Z M 3.0793274,10.713121 c -1.0287547,0 -1.8662215,-0.8374648 -1.8662215,-1.8662142 0,-1.0287571 0.8374668,-1.8662223 1.8662215,-1.8662223 0.097975,0 0.1959521,0.00698 0.2915964,0.023325 L 2.4028219,8.7629193 C 2.1975371,9.1361625 2.4681378,9.5933916 2.892706,9.5933916 H 4.789251 C 4.499987,10.25123 3.8421423,10.713121 3.0793274,10.713121 Z M 13.901063,8.949543 c -0.05134,0.9471128 -0.816458,1.712264 -1.76124,1.76125 -1.075404,0.05835 -1.968863,-0.8001451 -1.968863,-1.8638862 0,-0.4992163 0.195954,-0.9517747 0.515546,-1.2853616 l 1.152396,1.9222063 c 0.104976,0.1772925 0.335914,0.2332803 0.513201,0.128304 l 0.319598,-0.1912887 c 0.177287,-0.1049737 0.233274,-0.335921 0.128301,-0.5132132 L 11.666277,7.0203408 c 0.121302,-0.02566 0.244937,-0.037314 0.3709,-0.037314 1.063756,-0.00225 1.919875,0.8911201 1.863886,1.9665248 z"
     id="path2"
     style="stroke-width:0.0233276" />
</svg>
