<svg xmlns="http://www.w3.org/2000/svg" viewBox="0 0 576 512"><!--!Font Awesome Free 6.6.0 by @fontawesome - https://fontawesome.com License - https://fontawesome.com/license/free Copyright 2024 Fonticons, Inc.--><path d="M552 64H88c-13.3 0-24 10.7-24 24v8H24c-13.3 0-24 10.7-24 24v272c0 30.9 25.1 56 56 56h472c26.5 0 48-21.5 48-48V88c0-13.3-10.7-24-24-24zM56 400a8 8 0 0 1 -8-8V144h16v248a8 8 0 0 1 -8 8zm236-16H140c-6.6 0-12-5.4-12-12v-8c0-6.6 5.4-12 12-12h152c6.6 0 12 5.4 12 12v8c0 6.6-5.4 12-12 12zm208 0H348c-6.6 0-12-5.4-12-12v-8c0-6.6 5.4-12 12-12h152c6.6 0 12 5.4 12 12v8c0 6.6-5.4 12-12 12zm-208-96H140c-6.6 0-12-5.4-12-12v-8c0-6.6 5.4-12 12-12h152c6.6 0 12 5.4 12 12v8c0 6.6-5.4 12-12 12zm208 0H348c-6.6 0-12-5.4-12-12v-8c0-6.6 5.4-12 12-12h152c6.6 0 12 5.4 12 12v8c0 6.6-5.4 12-12 12zm0-96H140c-6.6 0-12-5.4-12-12v-40c0-6.6 5.4-12 12-12h360c6.6 0 12 5.4 12 12v40c0 6.6-5.4 12-12 12z"/></svg>