<?xml version="1.0" encoding="UTF-8" standalone="no"?>
<!-- Generator: Adobe Illustrator 22.0.1, SVG Export Plug-In . SVG Version: 6.00 Build 0)  -->

<svg
   version="1.1"
   id="Layer_1"
   x="0px"
   y="0px"
   viewBox="0 0 84.6 80.5"
   style="enable-background:new 0 0 84.6 80.5;"
   xml:space="preserve"
   sodipodi:docname="sakura.svg"
   inkscape:version="1.1 (c68e22c387, 2021-05-23)"
   xmlns:inkscape="http://www.inkscape.org/namespaces/inkscape"
   xmlns:sodipodi="http://sodipodi.sourceforge.net/DTD/sodipodi-0.dtd"
   xmlns:xlink="http://www.w3.org/1999/xlink"
   xmlns="http://www.w3.org/2000/svg"
   xmlns:svg="http://www.w3.org/2000/svg"><defs
   id="defs19"><linearGradient
     inkscape:collect="always"
     id="linearGradient840"><stop
       style="stop-color:#000000;stop-opacity:1;"
       offset="0"
       id="stop836" /><stop
       style="stop-color:#000000;stop-opacity:0;"
       offset="1"
       id="stop838" /></linearGradient><linearGradient
     inkscape:collect="always"
     xlink:href="#linearGradient840"
     id="linearGradient842"
     x1="-0.1"
     y1="40.282815"
     x2="84.6"
     y2="40.282815"
     gradientUnits="userSpaceOnUse" /></defs><sodipodi:namedview
   id="namedview17"
   pagecolor="#ffffff"
   bordercolor="#666666"
   borderopacity="1.0"
   inkscape:pageshadow="2"
   inkscape:pageopacity="0.0"
   inkscape:pagecheckerboard="0"
   showgrid="false"
   inkscape:zoom="5.1677019"
   inkscape:cx="83.983173"
   inkscape:cy="55.440505"
   inkscape:window-width="1920"
   inkscape:window-height="1017"
   inkscape:window-x="-8"
   inkscape:window-y="-8"
   inkscape:window-maximized="1"
   inkscape:current-layer="Layer_1" />
<style
   type="text/css"
   id="style2">
	.st0{fill:#F49AC1;}
</style>
<g
   id="g14"
   style="fill-opacity:1;fill:#000000">
	<path
   class="st0"
   d="M42.3,37.9c0,0,12.6-6.9,12.6-19.5c0-7.2-3.3-15.8-7.9-18.3l-4.6,4.6L37.6,0c-4.7,2.5-7.9,11.1-7.9,18.3   C29.7,30.9,42.3,37.9,42.3,37.9z"
   id="path4"
   style="fill-opacity:1;fill:#000000" />
	<path
   class="st0"
   d="M47.1,41.4c0,0,10.5,9.8,22.5,5.9c6.9-2.2,14-8,15-13.2l-5.9-3l3-5.9c-3.8-3.7-13-4.1-19.9-1.9   C49.9,27.3,47.1,41.4,47.1,41.4z"
   id="path6"
   style="fill-opacity:1;fill:#000000" />
	<path
   class="st0"
   d="M45.3,47.1c0,0-6.1,13,1.3,23.2c4.2,5.8,12,10.9,17.2,10.2l1-6.5l6.5,1c2.3-4.8-0.1-13.7-4.3-19.5   C59.6,45.3,45.3,47.1,45.3,47.1z"
   id="path8"
   style="fill-opacity:1;fill:#000000" />
	<path
   class="st0"
   d="M39.3,47.1c0,0-14.3-1.8-21.7,8.4C13.4,61.3,11,70.2,13.3,75l6.5-1l1,6.5c5.2,0.7,13-4.3,17.2-10.2   C45.4,60.1,39.3,47.1,39.3,47.1z"
   id="path10"
   style="fill-opacity:1;fill:#000000" />
	<path
   class="st0"
   d="M37.4,41.4c0,0-2.7-14.1-14.7-18c-6.9-2.2-16.1-1.8-19.9,1.9l3,5.9l-5.9,3c0.9,5.2,8.1,11,15,13.2   C27,51.2,37.4,41.4,37.4,41.4z"
   id="path12"
   style="fill-opacity:1;fill:#000000" />
</g>
</svg>
