<?xml version="1.0" encoding="UTF-8" standalone="no"?>
<svg
   version="1.1"
   id="Layer_1"
   x="0px"
   y="0px"
   width="64"
   height="64"
   viewBox="0 0 64 64"
   xml:space="preserve"
   sodipodi:docname="wikipedia.svg"
   inkscape:version="1.1 (c68e22c387, 2021-05-23)"
   xmlns:inkscape="http://www.inkscape.org/namespaces/inkscape"
   xmlns:sodipodi="http://sodipodi.sourceforge.net/DTD/sodipodi-0.dtd"
   xmlns:xlink="http://www.w3.org/1999/xlink"
   xmlns="http://www.w3.org/2000/svg"
   xmlns:svg="http://www.w3.org/2000/svg"
   xmlns:rdf="http://www.w3.org/1999/02/22-rdf-syntax-ns#"
   xmlns:cc="http://creativecommons.org/ns#"
   xmlns:dc="http://purl.org/dc/elements/1.1/"><metadata
   id="metadata9"><rdf:RDF><cc:Work
       rdf:about=""><dc:format>image/svg+xml</dc:format><dc:type
         rdf:resource="http://purl.org/dc/dcmitype/StillImage" /><dc:title /></cc:Work></rdf:RDF></metadata><defs
   id="defs7"><inkscape:perspective
     sodipodi:type="inkscape:persp3d"
     inkscape:vp_x="0 : 58 : 1"
     inkscape:vp_y="0 : 800 : 0"
     inkscape:vp_z="12 : 58 : 1"
     inkscape:persp3d-origin="6 : 56 : 1"
     id="perspective857" /><clipPath
     clipPathUnits="userSpaceOnUse"
     id="clipPath14"><use
       x="0"
       y="0"
       xlink:href="#g10"
       id="use16"
       width="100%"
       height="100%" /></clipPath><clipPath
     clipPathUnits="userSpaceOnUse"
     id="clipPath23"><use
       x="0"
       y="0"
       xlink:href="#g19"
       id="use25"
       width="100%"
       height="100%" /></clipPath><clipPath
     clipPathUnits="userSpaceOnUse"
     id="clipPath32"><use
       x="0"
       y="0"
       xlink:href="#g28"
       id="use34"
       width="100%"
       height="100%" /></clipPath><clipPath
     clipPathUnits="userSpaceOnUse"
     id="clipPath850"><g
       id="use852"
       inkscape:label="Clip"><path
         inkscape:connector-curvature="0"
         id="path880"
         d="M 10.798125,7.7785411 C 10.78472,10.863802 11.338269,13.374421 7.4088075,13.364952 3.840679,13.356352 4.3430938,11.034148 4.3430938,7.9488586 c 0,-3.7835914 -0.019272,-4.1195779 2.912428,-4.1216818 3.5788872,-0.00257 3.5596342,0.031519 3.5426032,3.9513643 z"
         inkscape:transform-center-y="-0.25547613"
         inkscape:transform-center-x="1.0389363"
         style="opacity:1;fill:#000000;fill-opacity:1;stroke:#ffffff;stroke-width:0;stroke-miterlimit:4;stroke-dasharray:none;stroke-opacity:1"
         sodipodi:nodetypes="sssss" /></g></clipPath><clipPath
     id="clipPath932"
     clipPathUnits="userSpaceOnUse"><use
       id="use934"
       xlink:href="#g928"
       y="0"
       x="0" /></clipPath></defs><sodipodi:namedview
   inkscape:snap-bbox="true"
   pagecolor="#ffffff"
   bordercolor="#666666"
   borderopacity="1"
   objecttolerance="10"
   gridtolerance="10"
   guidetolerance="10"
   inkscape:pageopacity="0"
   inkscape:pageshadow="2"
   inkscape:window-width="1920"
   inkscape:window-height="1017"
   id="namedview5"
   showgrid="false"
   inkscape:snap-nodes="true"
   inkscape:zoom="8"
   inkscape:cx="44.6875"
   inkscape:cy="34.3125"
   inkscape:window-x="-8"
   inkscape:window-y="-8"
   inkscape:window-maximized="1"
   inkscape:current-layer="Layer_1"
   inkscape:document-rotation="0"
   inkscape:pagecheckerboard="0" />
	<g
   id="g12"
   clip-path="url(#clipPath14)"
   transform="matrix(4.2831446,0,0,4.2572656,-0.14094202,0.06505554)"><g
     inkscape:label="Clip"
     id="g10"><g
       id="g21"
       clip-path="url(#clipPath23)"><g
         inkscape:label="Clip"
         id="g19"><g
           id="g30"
           clip-path="url(#clipPath32)"><g
             inkscape:label="Clip"
             id="g28" /></g></g></g></g></g>
<text
   xml:space="preserve"
   style="font-style:normal;font-weight:normal;font-size:40px;line-height:1.25;font-family:sans-serif;letter-spacing:0px;word-spacing:0px;fill:#000000;fill-opacity:1;stroke:none"
   x="13.125"
   y="47.625"
   id="text851"><tspan
     sodipodi:role="line"
     id="tspan849"
     x="13.125"
     y="47.625"
     style="font-style:normal;font-variant:normal;font-weight:normal;font-stretch:normal;font-family:'Liberation Serif';-inkscape-font-specification:'Liberation Serif'" /></text><text
   xml:space="preserve"
   style="font-style:normal;font-weight:normal;font-size:40px;line-height:1;font-family:sans-serif;letter-spacing:0px;word-spacing:0px;fill:#000000;fill-opacity:1;stroke:none"
   x="25.639648"
   y="49.253906"
   id="text852-5"><tspan
     sodipodi:role="line"
     id="tspan850-2"
     x="25.639648"
     y="49.253906"
     style="font-style:normal;font-variant:normal;font-weight:normal;font-stretch:normal;font-family:'Linux Libertine Capitals';-inkscape-font-specification:'Linux Libertine Capitals'" /></text><path
   d="m 5.7442917,14.938496 c -0.1824603,0 -0.3300781,0.145665 -0.3300781,0.328125 v 0.591797 c 0,0.18246 0.1476178,0.330078 0.3300781,0.330078 H 8.7677292 L 22.418119,51.864277 h 3.082032 l 5.791015,-14.599609 5.597656,14.630859 h 3.083985 L 54.134916,16.188496 h 4.386719 c 0.182461,0 0.330078,-0.147618 0.330078,-0.330078 v -0.591797 c 0,-0.18246 -0.147617,-0.328125 -0.330078,-0.328125 H 46.884916 c -0.18246,0 -0.330078,0.145665 -0.330078,0.328125 v 0.591797 c 0,0.18246 0.147618,0.330078 0.330078,0.330078 H 50.81851 L 39.539213,45.405293 33.984525,30.475605 39.619291,16.270527 h 3.583984 c 0.18246,0 0.330079,-0.147618 0.330079,-0.330078 v -0.673828 c 0,-0.18246 -0.147619,-0.328125 -0.330079,-0.328125 H 33.086088 c -0.18246,0 -0.328125,0.145665 -0.328125,0.328125 v 0.673828 c 0,0.18246 0.145665,0.330078 0.328125,0.330078 h 3.216797 L 32.429838,26.299824 28.699369,16.270527 h 2.3125 c 0.18246,0 0.328125,-0.147618 0.328125,-0.330078 v -0.673828 c 0,-0.18246 -0.145665,-0.328125 -0.328125,-0.328125 H 20.894682 c -0.18246,0 -0.330078,0.145665 -0.330078,0.328125 v 0.673828 c 0,0.18246 0.147618,0.330078 0.330078,0.330078 h 2.365234 l 6.492188,16.96875 -4.685547,12.134766 -10.857422,-29.185547 h 2.761719 c 0.18246,0 0.328125,-0.147618 0.328125,-0.330078 v -0.591797 c 0,-0.18246 -0.145665,-0.328125 -0.328125,-0.328125 z"
   style="fill:#000000;fill-rule:evenodd;stroke-width:13.4852;stroke-linecap:round;stroke-linejoin:round;paint-order:stroke markers fill"
   id="rect908" /><g
   transform="translate(-0.06785349,-0.18749724)"
   clip-path="url(#clipPath932)"
   id="g930"><g
     id="g928"
     inkscape:label="Clip" /></g></svg>
