<?xml version="1.0" encoding="utf-8"?>
<!-- Generator: Adobe Illustrator 13.0.0, SVG Export Plug-In . SVG Version: 6.00 Build 14948)  -->
<!DOCTYPE svg PUBLIC "-//W3C//DTD SVG 1.0//EN" "http://www.w3.org/TR/2001/REC-SVG-20010904/DTD/svg10.dtd">
<svg version="1.0" xmlns="http://www.w3.org/2000/svg" xmlns:xlink="http://www.w3.org/1999/xlink" x="0px" y="0px" width="580px"
	 height="580px" viewBox="0 0 580 580" enable-background="new 0 0 580 580" xml:space="preserve">
<g id="地図記号">
	<path d="M253.206,74.546l58.267,104.737l75.125-132.964l60.264,136.667l75.273-158.559l-18.687-8.859l-55.901,117.725
		L388.859,0.254L311.607,136.98L253.206,32.041V7.651h-34.453v300.369h1.078L57.865,579.746H414.09l-9.329-15.638L252.122,308.021
		h1.083V74.546z M377.672,559.046H94.284L235.971,321.31L377.672,559.046z M199.79,479.336c0,21.251,17.226,38.485,38.484,38.485
		c21.26,0,38.492-17.234,38.492-38.485c0-21.259-17.232-38.491-38.492-38.491C217.015,440.845,199.79,458.077,199.79,479.336z"/>
</g>
<g id="ガイド">
</g>
</svg>
