<?xml version="1.0" encoding="utf-8"?>
<!-- Generator: Adobe Illustrator 17.0.0, SVG Export Plug-In . SVG Version: 6.00 Build 0)  -->
<!DOCTYPE svg PUBLIC "-//W3C//DTD SVG 1.0//EN" "http://www.w3.org/TR/2001/REC-SVG-20010904/DTD/svg10.dtd">
<svg version="1.0" xmlns="http://www.w3.org/2000/svg" xmlns:xlink="http://www.w3.org/1999/xlink" x="0px" y="0px" width="580px"
	 height="580px" viewBox="0 0 580 580" enable-background="new 0 0 580 580" xml:space="preserve">
<g id="地図記号">
	<path d="M290.001,0.675C130.209,0.704,0.705,130.208,0.677,290.003c0.028,159.793,129.532,289.293,289.324,289.321
		c159.801-0.027,289.301-129.527,289.322-289.321C579.302,130.208,449.802,0.704,290.001,0.675z M334.095,289.997L470.995,153.1
		c28.854,38.072,45.95,85.379,45.967,136.903c-0.017,51.516-17.108,98.819-45.961,136.889L334.095,289.997z M426.894,109.006
		L289.998,245.899L153.105,109.01c38.073-28.861,85.377-45.958,136.896-45.965C341.521,63.051,388.82,80.148,426.894,109.006z
		 M109.011,153.107L245.9,289.997L109.004,426.885c-28.852-38.066-45.946-85.371-45.955-136.881
		C63.058,238.479,80.152,191.175,109.011,153.107z M153.101,470.988l136.896-136.895l136.9,136.902
		c-38.074,28.85-85.373,45.941-136.897,45.959C238.482,516.938,191.174,499.846,153.101,470.988z"/>
</g>
<g id="ガイド">
</g>
</svg>
