<?xml version="1.0" encoding="utf-8"?>
<!-- Generator: Adobe Illustrator 17.0.0, SVG Export Plug-In . SVG Version: 6.00 Build 0)  -->
<!DOCTYPE svg PUBLIC "-//W3C//DTD SVG 1.0//EN" "http://www.w3.org/TR/2001/REC-SVG-20010904/DTD/svg10.dtd">
<svg version="1.0" xmlns="http://www.w3.org/2000/svg" xmlns:xlink="http://www.w3.org/1999/xlink" x="0px" y="0px" width="580px"
	 height="580px" viewBox="0 0 580 580" enable-background="new 0 0 580 580" xml:space="preserve">
<g id="地図記号">
	<path d="M289.883,0.732C130.005,0.751,0.436,130.313,0.404,290.191c0.032,159.875,129.601,289.443,289.479,289.457
		c159.877-0.014,289.441-129.582,289.478-289.457C579.324,130.313,449.76,0.751,289.883,0.732z M70.642,250.556
		c3.67-20.469,10.087-39.955,18.939-58.061h400.603c8.851,18.106,15.262,37.592,18.934,58.061H70.642z M440.316,125.843H139.448
		c39.707-36.35,92.328-58.452,150.434-58.472C347.982,67.391,400.604,89.493,440.316,125.843z M68.748,317.191h187.818v193.338
		c-48.208-7.21-91.247-29.821-124.245-62.779C97.931,413.322,74.866,367.957,68.748,317.191z M447.443,447.75
		c-32.997,32.958-76.023,55.569-124.232,62.779V317.191h187.8C504.892,367.957,481.827,413.322,447.443,447.75z"/>
</g>
<g id="ガイド">
</g>
</svg>
