<?xml version="1.0" encoding="utf-8"?>
<!-- Generator: Adobe Illustrator 17.0.0, SVG Export Plug-In . SVG Version: 6.00 Build 0)  -->
<!DOCTYPE svg PUBLIC "-//W3C//DTD SVG 1.0//EN" "http://www.w3.org/TR/2001/REC-SVG-20010904/DTD/svg10.dtd">
<svg version="1.0" xmlns="http://www.w3.org/2000/svg" xmlns:xlink="http://www.w3.org/1999/xlink" x="0px" y="0px" width="580px"
	 height="580px" viewBox="0 0 580 580" enable-background="new 0 0 580 580" xml:space="preserve">
<g id="地図記号">
	<path d="M289.998,0.535C130.132,0.548,0.536,130.129,0.536,290.017c0,159.854,129.596,289.448,289.462,289.448
		c159.878,0,289.452-129.594,289.466-289.448C579.45,130.129,449.876,0.548,289.998,0.535z M469.405,469.422
		c-45.969,45.947-109.29,74.307-179.407,74.328c-70.141-0.021-133.448-28.381-179.417-74.328
		c-45.956-45.977-74.308-109.307-74.329-179.405c0.021-70.141,28.373-133.448,74.329-179.424
		c45.969-45.948,109.276-74.309,179.417-74.329c70.117,0.02,133.439,28.381,179.407,74.329
		c45.941,45.976,74.308,109.283,74.323,179.424C543.713,360.115,515.346,423.445,469.405,469.422z M322.144,146.581h-64.304v118.407
		H142.806v64.327h115.034v104.125h64.304V329.314H437.2v-64.327H322.144V146.581z"/>
</g>
<g id="ガイド">
</g>
</svg>
