<?xml version="1.0" encoding="utf-8"?>
<!-- Generator: Adobe Illustrator 17.0.0, SVG Export Plug-In . SVG Version: 6.00 Build 0)  -->
<!DOCTYPE svg PUBLIC "-//W3C//DTD SVG 1.0//EN" "http://www.w3.org/TR/2001/REC-SVG-20010904/DTD/svg10.dtd">
<svg version="1.0" xmlns="http://www.w3.org/2000/svg" xmlns:xlink="http://www.w3.org/1999/xlink" x="0px" y="0px" width="580px"
	 height="580px" viewBox="-0.5 -0.5 580 580" enable-background="new -0.5 -0.5 580 580" xml:space="preserve">
<g id="アートボードのガイド">
</g>
<g id="官公署">
	<g>
		<path d="M336.308,175.229V0.854h-77.191v174.38c-93.8,18.05-164.645,100.479-164.661,199.553
			c0.021,112.264,90.986,203.23,203.264,203.25c112.269-0.019,203.225-90.986,203.255-203.25
			C500.949,275.707,430.104,193.278,336.308,175.229z M297.719,500.849c-69.623-0.12-125.951-56.453-126.076-126.063
			c0.125-69.629,56.453-125.954,126.076-126.074c69.61,0.12,125.932,56.445,126.058,126.074
			C423.651,444.396,367.33,500.729,297.719,500.849z"/>
		<path d="M501.834,72.036c0,31.739-25.73,57.463-57.464,57.463c-31.733,0-57.462-25.724-57.462-57.463
			c0-31.734,25.728-57.459,57.462-57.459C476.104,14.577,501.834,40.302,501.834,72.036z"/>
		<path d="M191.367,72.036c0,31.739-25.728,57.463-57.463,57.463s-57.463-25.724-57.463-57.463
			c0-31.734,25.729-57.459,57.463-57.459S191.367,40.302,191.367,72.036z"/>
	</g>
</g>
<g id="ガイド">
</g>
</svg>
