<?xml version="1.0" encoding="utf-8"?>
<!-- Generator: Adobe Illustrator 17.0.0, SVG Export Plug-In . SVG Version: 6.00 Build 0)  -->
<!DOCTYPE svg PUBLIC "-//W3C//DTD SVG 1.0//EN" "http://www.w3.org/TR/2001/REC-SVG-20010904/DTD/svg10.dtd">
<svg version="1.0" xmlns="http://www.w3.org/2000/svg" xmlns:xlink="http://www.w3.org/1999/xlink" x="0px" y="0px" width="580px"
	 height="580px" viewBox="0 0 580 580" enable-background="new 0 0 580 580" xml:space="preserve">
<g id="地図記号">
	<path d="M488.65,46.341c0,0-86.273-23.453-152.443-6.701C268.962,56.667,241.111,104.909,236.53,110
		c-13.283-4.043-37.063-16.438-63.914-16.484c-21.698,0-49.228,2.919-75.129,13.134c-75.915,29.735-97.162,82.924-97.162,82.924
		l94.649,356.818c0,0,84.638-67.775,114.752-79.573c38.125-14.939,128.449,6.138,128.449,6.138s0.242-0.209,0.497-0.432
		c0,0,70.333-64.934,93.583-72.433c25.967-8.376,147.419,6.7,147.419,6.7L488.65,46.341z M286.989,419.48
		c-9.344-0.602-19.965-1.048-30.978-1.054c-15.83,0.02-32.432,0.885-48.046,3.861c-24.886,5.15-50.518,26.855-72.767,40.494
		c-4.116,2.577-8.049,5.11-11.727,7.532L51.419,202.137c8.173-10.751,26.397-39.053,63.657-53.607
		c19.58-7.643,43.387-10.889,60.309-10.889c16.975-0.013,28.977,5.437,39.276,8.094c0.195,0.053,0.347,0.099,0.544,0.152
		l50.014,185.677L286.989,419.48z M408.804,358.767c-24.017,12.008-69.882,53.686-72.644,55.767l-25.679-95.298l-44.813-181
		c14.566-17.125,40.761-52.369,83.1-58.39c19.533-3.05,91.352,2.31,101.267,4.031c0.785,0.138,1.531,0.275,2.251,0.405
		l69.868,271.972C492.563,354.298,422.205,352.066,408.804,358.767z"/>
</g>
<g id="ガイド">
</g>
</svg>
