<?xml version="1.0" encoding="utf-8"?>
<!-- Generator: Adobe Illustrator 17.0.0, SVG Export Plug-In . SVG Version: 6.00 Build 0)  -->
<!DOCTYPE svg PUBLIC "-//W3C//DTD SVG 1.0//EN" "http://www.w3.org/TR/2001/REC-SVG-20010904/DTD/svg10.dtd">
<svg version="1.0" xmlns="http://www.w3.org/2000/svg" xmlns:xlink="http://www.w3.org/1999/xlink" x="0px" y="0px" width="580px"
	 height="580px" viewBox="0 0 580 580" enable-background="new 0 0 580 580" xml:space="preserve">
<g id="地図記号">
	<g>
		<path d="M0.346,290.153C0.359,130.25,129.95,0.658,289.853,0.639l0,0C449.756,0.658,579.341,130.25,579.36,290.153l0,0
			c-0.02,159.897-129.605,289.487-289.507,289.501l0,0C129.95,579.641,0.359,450.05,0.346,290.153L0.346,290.153z M114.984,115.285
			c-44.78,44.817-72.416,106.509-72.427,174.869l0,0c0.011,68.352,27.647,130.045,72.427,174.862l0,0
			c44.826,44.778,106.514,72.42,174.869,72.43l0,0c68.355-0.01,130.042-27.651,174.864-72.43l0,0
			c44.783-44.817,72.422-106.511,72.432-174.862l0,0c-0.01-68.36-27.648-130.051-72.432-174.869l0,0
			c-44.822-44.789-106.51-72.421-174.864-72.43l0,0C221.498,42.863,159.81,70.496,114.984,115.285L114.984,115.285z"/>
		<path d="M112.041,290.147c0.014-98.206,79.603-177.804,177.812-177.817l0,0c98.207,0.014,177.804,79.611,177.81,177.817l0,0
			c-0.006,98.202-79.603,177.802-177.81,177.814l0,0C191.643,467.949,112.054,388.35,112.041,290.147L112.041,290.147z
			 M184.017,184.314c-27.104,27.129-43.831,64.456-43.836,105.833l0,0c0.005,41.374,16.732,78.701,43.836,105.832l0,0
			c27.129,27.109,64.461,43.83,105.836,43.836l0,0c41.376-0.006,78.703-16.727,105.833-43.836l0,0
			c27.107-27.131,43.831-64.458,43.837-105.832l0,0c-0.006-41.376-16.73-78.704-43.837-105.833l0,0
			c-27.13-27.108-64.457-43.831-105.833-43.835l0,0C248.479,140.484,211.147,157.206,184.017,184.314L184.017,184.314z"/>
	</g>
</g>
<g id="ガイド">
</g>
</svg>
