<?xml version="1.0" encoding="utf-8"?>
<!-- Generator: Adobe Illustrator 17.0.0, SVG Export Plug-In . SVG Version: 6.00 Build 0)  -->
<!DOCTYPE svg PUBLIC "-//W3C//DTD SVG 1.0//EN" "http://www.w3.org/TR/2001/REC-SVG-20010904/DTD/svg10.dtd">
<svg version="1.0" xmlns="http://www.w3.org/2000/svg" xmlns:xlink="http://www.w3.org/1999/xlink" x="0px" y="0px" width="580px"
	 height="580px" viewBox="0 0 580 580" enable-background="new 0 0 580 580" xml:space="preserve">
<g id="地図記号">
	<path d="M547.216,440.069H418.817v38.87l68.391-0.019c-9.264,10.584-22.829,20.996-41.101,30.261
		c-31.354,15.994-74.39,27.309-122.667,30.611V118.146c19.858-10.489,33.401-31.314,33.401-55.339
		c0-34.561-28.009-62.572-62.571-62.572c-34.56,0-62.571,28.011-62.571,62.572c0,24.024,13.545,44.85,33.403,55.339v421.647
		c-48.277-3.293-91.333-14.607-122.686-30.611c-18.263-9.265-31.825-19.677-41.101-30.261l59.914,0.01V440.06H32.784l11.902,117.36
		l38.69-3.9l-4.205-41.386c12.577,12.245,28.182,22.857,45.637,31.722c44.651,22.611,104.025,35.861,169.453,35.909
		c65.43-0.048,124.811-13.298,169.453-35.909c13.337-6.776,25.609-14.569,36.277-23.331l-3.34,33.004l38.698,3.929l-0.019-0.028
		L547.216,440.069z"/>
</g>
<g id="ガイド">
</g>
</svg>
