<?xml version="1.0" encoding="utf-8"?>
<!-- Generator: Adobe Illustrator 17.0.0, SVG Export Plug-In . SVG Version: 6.00 Build 0)  -->
<!DOCTYPE svg PUBLIC "-//W3C//DTD SVG 1.0//EN" "http://www.w3.org/TR/2001/REC-SVG-20010904/DTD/svg10.dtd">
<svg version="1.0" xmlns="http://www.w3.org/2000/svg" xmlns:xlink="http://www.w3.org/1999/xlink" x="0px" y="0px" width="580px"
	 height="580px" viewBox="0 0 580 580" enable-background="new 0 0 580 580" xml:space="preserve">
<g id="地図記号">
	<path d="M390.599,12.525c-34.017,0-66.34,7.284-95.606,20.218c-29.314-12.996-61.747-20.229-95.837-20.218
		c-83.34,0-156.804,43.126-198.968,108.236l41.897,27.134l-0.024-0.024c33.407-51.469,91.232-85.485,157.096-85.485
		c13.884,0,27.343,1.705,40.35,4.567c-18.56,15.369-34.734,33.517-47.876,53.808l41.872,27.122
		c7.99-12.324,17.439-23.579,28.011-33.65v453.241h228.674v-62.331H323.893V110.251c9.061,8.026,17.344,16.916,24.676,26.61
		l39.813-30.008c-11.145-14.787-24.03-28.184-38.291-39.997c13.045-2.873,26.588-4.482,40.508-4.482
		c61.103,0.038,115.2,29.231,149.41,74.488l39.802-30.008C536.649,49.575,467.862,12.501,390.599,12.525z"/>
</g>
<g id="ガイド">
</g>
</svg>
