<?xml version="1.0" encoding="utf-8"?>
<!-- Generator: Adobe Illustrator 17.0.0, SVG Export Plug-In . SVG Version: 6.00 Build 0)  -->
<!DOCTYPE svg PUBLIC "-//W3C//DTD SVG 1.0//EN" "http://www.w3.org/TR/2001/REC-SVG-20010904/DTD/svg10.dtd">
<svg version="1.0" xmlns="http://www.w3.org/2000/svg" xmlns:xlink="http://www.w3.org/1999/xlink" x="0px" y="0px" width="580px"
	 height="580px" viewBox="0 0 580 580" enable-background="new 0 0 580 580" xml:space="preserve">
<g id="地図記号">
	<g>
		<path d="M116.405,538c-45.676-26.133-80.231-66.215-80.598-116.807l0,0c0.029-37.584,20.087-70.383,48.732-94.568l0,0
			l37.974,44.662c-19.835,17.084-28.056,33.965-28.056,49.906l0,0c-0.361,20.795,15.413,45.277,51.171,65.961l0,0
			c35.087,20.27,86.861,34.035,144.405,33.941l0,0c57.499,0.094,109.261-13.672,144.372-33.941l0,0
			c35.752-20.684,51.533-45.166,51.176-65.961l0,0c0.161-18.852-12.195-40.197-41.157-59.779l0,0l32.593-48.738
			c38.567,25.676,67.017,63.121,67.175,108.518l0,0c-0.355,50.592-34.917,90.674-80.561,116.807l0,0
			c-46.277,26.451-106.959,41.639-173.597,41.707l0,0C223.351,579.639,162.686,564.451,116.405,538L116.405,538z M444.403,361.414
			c0.011,0,0.011,0,0.021,0l0,0l-0.021,0.023V361.414L444.403,361.414z"/>
		<path d="M112.945,311.623c-0.028,0,1.5-2.154,4.077-6.412l0,0c2.578-4.215,6.069-10.246,9.482-17.092l0,0
			c7.008-13.525,13.025-31.081,12.723-40.506l0,0c0.028,0-0.138-1.877-2.244-5.703l0,0c-2.057-3.767-5.658-8.84-9.871-14.726l0,0
			c-7.982-11.772-20.322-27.026-20.818-50.502l0,0c0.279-22.812,8.347-44.901,15.717-63.178l0,0
			c7.512-18.012,14.807-31.264,15.052-31.767l0,0l0.028,0.034l41.084,22.595c0,0-1.477,2.633-3.882,7.535l0,0
			c-2.441,4.901-5.716,11.841-8.956,19.593l0,0c-6.539,15.334-12.389,35.042-12.139,45.189l0,0
			c-0.498,3.104,3.659,11.944,12.109,23.281l0,0c7.507,11.477,19.956,24.451,20.813,47.65l0,0
			c-0.274,23.51-9.447,44.605-17.658,61.49l0,0c-8.365,16.697-16.456,28.469-16.816,29.088l0,0L112.945,311.623L112.945,311.623z"/>
		<path d="M384.465,318.059c0-0.023,1.499-2.564,4.042-7.307l0,0c2.53-4.787,5.933-11.52,9.288-19.105l0,0
			c6.823-14.945,12.837-34.206,12.563-44.02l0,0c0,0-0.138-1.89-2.28-5.716l0,0c-2.015-3.767-5.621-8.875-9.837-14.715l0,0
			c-8.016-11.783-20.314-27.037-20.819-50.513l0,0c0.253-22.812,8.349-44.901,15.723-63.178l0,0
			c7.479-18.012,14.774-31.264,15.05-31.733l0,0l41.089,22.583c0.021,0-1.444,2.633-3.885,7.547l0,0
			c-2.438,4.901-5.714,11.841-8.93,19.593l0,0c-6.574,15.334-12.414,35.042-12.176,45.189l0,0
			c-0.469,3.081,3.666,11.922,12.152,23.281l0,0c7.478,11.453,19.925,24.462,20.818,47.663l0,0
			c-0.286,23.12-8.852,45.017-16.581,63.013l0,0c-7.868,17.772-15.517,30.736-15.805,31.264l0,0L384.465,318.059L384.465,318.059z"
			/>
		<path d="M245.235,307.568c-0.023,0,1.133-2.473,3.104-7.443l0,0c1.969-4.951,4.627-12.099,7.26-20.504l0,0
			c5.326-16.743,10.399-38.718,10.342-57.201l0,0c0.39-6.928-5.154-19.513-13.834-35.478l0,0
			c-8.143-15.917-18.93-35.648-19.123-61.118l0,0c0.285-29.018,11.393-58.711,21.733-83.07l0,0
			c10.445-24.117,20.704-41.97,20.979-42.462l0,0l40.689,23.339c0,0.022-2.188,3.788-5.702,10.58l0,0
			c-3.528,6.825-8.268,16.388-12.919,27.198l0,0c-9.482,21.335-18.162,48.589-17.876,64.415l0,0
			c-0.195,10.72,5.486,23.774,13.8,39.36l0,0c7.82,15.517,18.77,33.118,19.158,57.235l0,0
			c-0.389,52.299-24.54,103.105-24.919,104.64l0,0L245.235,307.568L245.235,307.568z"/>
	</g>
</g>
<g id="ガイド">
</g>
</svg>
