<?xml version="1.0" encoding="utf-8"?>
<!-- Generator: Adobe Illustrator 17.0.0, SVG Export Plug-In . SVG Version: 6.00 Build 0)  -->
<!DOCTYPE svg PUBLIC "-//W3C//DTD SVG 1.0//EN" "http://www.w3.org/TR/2001/REC-SVG-20010904/DTD/svg10.dtd">
<svg version="1.0" xmlns="http://www.w3.org/2000/svg" xmlns:xlink="http://www.w3.org/1999/xlink" x="0px" y="0px" width="580px"
	 height="580px" viewBox="0 0 580 580" enable-background="new 0 0 580 580" xml:space="preserve">
<g id="地図記号">
	<g>
		<path d="M116.884,540.154c-45.387-24.727-80.246-62.636-80.727-111.762l0,0c0.055-36.488,20.419-67.84,48.95-90.707l0,0
			l35.177,43.506c-20.146,16.484-28.191,32.597-28.137,47.201l0,0c-0.481,18.977,15.238,42.741,51.574,62.637l0,0
			c35.625,19.567,88.063,32.794,146.272,32.706l0,0c58.225,0.088,110.674-13.139,146.31-32.706l0,0
			c36.336-19.896,52.055-43.66,51.573-62.637l0,0c0.241-17.271-12.002-37.844-41.473-56.711l0,0h0.044l30.018-47.202
			c38.391,24.268,67.14,59.816,67.38,103.913l0,0c-0.481,49.126-35.308,87.035-80.738,111.762l0,0
			c-46.108,25.077-106.58,39.462-173.113,39.571l0,0C223.475,579.616,163.003,565.231,116.884,540.154L116.884,540.154z"/>
		<polygon points="191.129,494.658 191.129,438.689 413.149,438.689 413.149,494.658 191.129,494.658 		"/>
		<polygon points="168.752,403.251 168.752,336.089 390.762,336.089 390.762,403.251 168.752,403.251 		"/>
		<polygon points="198.595,304.367 198.595,237.221 411.268,237.221 411.268,304.367 198.595,304.367 		"/>
		<polygon points="258.29,183.122 258.29,115.949 456.044,115.949 456.044,183.122 258.29,183.122 		"/>
		<polygon points="319.883,67.425 319.883,0.274 515.772,0.274 515.772,67.425 319.883,67.425 		"/>
	</g>
</g>
<g id="ガイド">
</g>
</svg>
