<?xml version="1.0" encoding="utf-8"?>
<!-- Generator: Adobe Illustrator 17.0.0, SVG Export Plug-In . SVG Version: 6.00 Build 0)  -->
<!DOCTYPE svg PUBLIC "-//W3C//DTD SVG 1.0//EN" "http://www.w3.org/TR/2001/REC-SVG-20010904/DTD/svg10.dtd">
<svg version="1.0" xmlns="http://www.w3.org/2000/svg" xmlns:xlink="http://www.w3.org/1999/xlink" x="0px" y="0px" width="580px"
	 height="580px" viewBox="0 0 580 580" enable-background="new 0 0 580 580" xml:space="preserve">
<g id="地図記号">
	<g>
		<g>
			<path d="M215.594,453.689c0,59.434-48.166,107.602-107.6,107.602c-59.435,0-107.6-48.168-107.6-107.602
				c0-59.435,48.165-107.601,107.6-107.601C167.428,346.089,215.594,394.255,215.594,453.689z"/>
			<path d="M579.604,453.689c0,59.434-48.167,107.602-107.6,107.602c-59.435,0-107.601-48.168-107.601-107.602
				c0-59.435,48.166-107.601,107.601-107.601C531.437,346.089,579.604,394.255,579.604,453.689z"/>
		</g>
		<path d="M397.599,126.31c0,59.434-48.165,107.6-107.6,107.6c-59.434,0-107.6-48.166-107.6-107.6
			c0-59.435,48.166-107.601,107.6-107.601C349.434,18.709,397.599,66.875,397.599,126.31z"/>
	</g>
</g>
<g id="ガイド">
</g>
</svg>
