<?xml version="1.0" encoding="UTF-8" standalone="no"?>
<svg
   id="svg2"
   viewBox="0 0 14 14"
   height="14"
   width="14"
   version="1.1"
   sodipodi:docname="community_center_orange.svg"
   inkscape:version="1.2.2 (732a01da63, 2022-12-09)"
   xmlns:inkscape="http://www.inkscape.org/namespaces/inkscape"
   xmlns:sodipodi="http://sodipodi.sourceforge.net/DTD/sodipodi-0.dtd"
   xmlns="http://www.w3.org/2000/svg"
   xmlns:svg="http://www.w3.org/2000/svg"
   xmlns:rdf="http://www.w3.org/1999/02/22-rdf-syntax-ns#"
   xmlns:cc="http://creativecommons.org/ns#"
   xmlns:dc="http://purl.org/dc/elements/1.1/">
  <sodipodi:namedview
     pagecolor="#ffffff"
     bordercolor="#666666"
     borderopacity="1"
     objecttolerance="10"
     gridtolerance="10"
     guidetolerance="10"
     inkscape:pageopacity="0"
     inkscape:pageshadow="2"
     inkscape:window-width="1920"
     inkscape:window-height="1129"
     id="namedview7"
     showgrid="false"
     inkscape:zoom="30.357143"
     inkscape:cx="-0.24705882"
     inkscape:cy="8.1694117"
     inkscape:window-x="-8"
     inkscape:window-y="-8"
     inkscape:window-maximized="1"
     inkscape:current-layer="svg2"
     inkscape:document-rotation="0"
     inkscape:showpageshadow="2"
     inkscape:pagecheckerboard="0"
     inkscape:deskcolor="#d1d1d1" />
  <metadata
     id="metadata8">
    <rdf:RDF>
      <cc:Work
         rdf:about="">
        <dc:format>image/svg+xml</dc:format>
        <dc:type
           rdf:resource="http://purl.org/dc/dcmitype/StillImage" />
        <dc:title />
      </cc:Work>
    </rdf:RDF>
  </metadata>
  <defs
     id="defs6" />
  <path
     inkscape:connector-curvature="0"
     style="fill:#ffffff;stroke-width:0.259048"
     d="m 12.291346,13.957534 c 0.920879,0 1.6663,-0.743692 1.6663,-1.664667 V 1.6758877 c 0,-0.92097651 -0.745421,-1.66647523 -1.6663,-1.66647523 H 1.6757109 c -0.92087942,0 -1.66629934,0.74549872 -1.66629934,1.66647523 V 12.292979 c 0,0.920977 0.74541992,1.664668 1.66629934,1.664668 H 12.291346 Z"
     id="path2-3" />
  <path
     inkscape:connector-curvature="0"
     style="fill:#ef9235;fill-opacity:1;stroke-width:0.254014"
     d="m 1.8233523,0.46506511 c -0.746772,0 -1.35453227,0.60984689 -1.35453227,1.35918239 V 12.249635 c 0,0.749336 0.60776027,1.358295 1.35453227,1.358295 H 12.212301 c 0.747656,0 1.354532,-0.608959 1.354532,-1.358295 V 1.8243583 c 10e-7,-0.7493355 -0.606876,-1.35918229 -1.354532,-1.35918229 H 1.8229099 Z"
     id="path4" />
  <rect
     style="fill:none;stroke:none;visibility:hidden"
     id="canvas"
     y="0"
     x="0"
     height="14"
     width="14" />
  <path
     d="M 13.196159,6.2822623 11.951245,7.5636134 Q 10.487711,6.3794264 9.230651,4.7822921 7.9796637,3.179085 7.4088248,1.8066426 L 8.9877409,1.2358037 q 0.7590942,1.6457164 1.9068451,2.9452857 1.14775,1.2995694 2.301573,2.1011729 z M 6.4311114,1.7459151 Q 5.8967091,3.2458853 4.66394,4.8733834 3.4311709,6.5008815 2.0283647,7.5514679 L 0.92919627,6.4583722 Q 3.2186245,4.7154918 4.7853951,1.3329678 Z M 10.39662,11.523049 Q 7.4270431,11.923851 1.603272,12.342871 L 1.3542891,10.697155 q 0.6133481,0 1.6942983,-0.05466 Q 3.8319727,9.3004211 4.6457217,7.4846676 5.4655435,5.6628414 5.7813267,4.5090182 L 7.5727892,4.8916017 Q 7.1962784,6.0211339 6.467548,7.6547047 5.7388175,9.2882756 4.9979415,10.521045 7.9310817,10.314571 9.6132345,10.083806 8.6719577,8.3834352 8.3075924,7.8247419 l 1.530334,-0.668003 q 0.4918936,0.668003 1.5242616,2.4291016 1.032368,1.7550255 1.263133,2.3926655 l -1.767172,0.461529 Q 10.760985,12.20927 10.39662,11.523049 Z"
     style="font-weight:bold;font-size:12.437px;line-height:1.25;font-family:'Meiryo UI';-inkscape-font-specification:'Meiryo UI Bold';fill:#ffffff"
     id="path786" />
</svg>
