<?xml version="1.0" encoding="UTF-8" standalone="no"?>
<svg
   xmlns:dc="http://purl.org/dc/elements/1.1/"
   xmlns:cc="http://creativecommons.org/ns#"
   xmlns:rdf="http://www.w3.org/1999/02/22-rdf-syntax-ns#"
   xmlns:svg="http://www.w3.org/2000/svg"
   xmlns="http://www.w3.org/2000/svg"
   xmlns:xlink="http://www.w3.org/1999/xlink"
   xmlns:sodipodi="http://sodipodi.sourceforge.net/DTD/sodipodi-0.dtd"
   xmlns:inkscape="http://www.inkscape.org/namespaces/inkscape"
   inkscape:version="1.0 (4035a4fb49, 2020-05-01)"
   sodipodi:docname="fire_hydrant.svg"
   xml:space="preserve"
   viewBox="0 0 25 25"
   height="20"
   width="20"
   y="0px"
   x="0px"
   id="Layer_1"
   version="1.1"><metadata
   id="metadata9"><rdf:RDF><cc:Work
       rdf:about=""><dc:format>image/svg+xml</dc:format><dc:type
         rdf:resource="http://purl.org/dc/dcmitype/StillImage" /><dc:title></dc:title></cc:Work></rdf:RDF></metadata><defs
   id="defs7"><inkscape:perspective
     id="perspective857"
     inkscape:persp3d-origin="7.5 : 15 : 1"
     inkscape:vp_z="15 : 17.5 : 1"
     inkscape:vp_y="0 : 1000 : 0"
     inkscape:vp_x="0 : 17.5 : 1"
     sodipodi:type="inkscape:persp3d" /><clipPath
     id="clipPath14"
     clipPathUnits="userSpaceOnUse"><use
       height="100%"
       width="100%"
       id="use16"
       xlink:href="#g10"
       y="0"
       x="0" /></clipPath><clipPath
     id="clipPath23"
     clipPathUnits="userSpaceOnUse"><use
       height="100%"
       width="100%"
       id="use25"
       xlink:href="#g19"
       y="0"
       x="0" /></clipPath><clipPath
     id="clipPath32"
     clipPathUnits="userSpaceOnUse"><use
       height="100%"
       width="100%"
       id="use34"
       xlink:href="#g28"
       y="0"
       x="0" /></clipPath><clipPath
     id="clipPath850"
     clipPathUnits="userSpaceOnUse"><g
       inkscape:label="Clip"
       id="use852"><path
         sodipodi:nodetypes="sssss"
         style="opacity:1;fill:#000000;fill-opacity:1;stroke:#ffffff;stroke-width:0;stroke-miterlimit:4;stroke-dasharray:none;stroke-opacity:1"
         inkscape:transform-center-x="1.0389363"
         inkscape:transform-center-y="-0.25547613"
         d="M 10.798125,7.7785411 C 10.78472,10.863802 11.338269,13.374421 7.4088075,13.364952 3.840679,13.356352 4.3430938,11.034148 4.3430938,7.9488586 c 0,-3.7835914 -0.019272,-4.1195779 2.912428,-4.1216818 3.5788872,-0.00257 3.5596342,0.031519 3.5426032,3.9513643 z"
         id="path880"
         inkscape:connector-curvature="0" /></g></clipPath></defs><sodipodi:namedview
   inkscape:document-rotation="0"
   inkscape:snap-bbox="false"
   inkscape:object-paths="false"
   inkscape:measure-end="3.02288,5.13072"
   inkscape:measure-start="2.0915,3.79085"
   inkscape:current-layer="Layer_1"
   inkscape:window-maximized="0"
   inkscape:window-y="2"
   inkscape:window-x="-138"
   inkscape:cy="9.8504043"
   inkscape:cx="7.5579378"
   inkscape:zoom="30.6"
   inkscape:snap-nodes="true"
   showgrid="false"
   id="namedview5"
   inkscape:window-height="1040"
   inkscape:window-width="1644"
   inkscape:pageshadow="2"
   inkscape:pageopacity="0"
   guidetolerance="10"
   gridtolerance="10"
   objecttolerance="10"
   borderopacity="1"
   bordercolor="#666666"
   pagecolor="#ffffff" />
	<path
   id="path2-3"
   d="m 22.133379,25.129547 c 1.656306,0 2.99703,-1.340933 2.99703,-3.001521 V 2.984809 c 0,-1.6605908 -1.340724,-3.00478144 -2.99703,-3.00478144 H 3.0399573 c -1.6563064,0 -2.99702833,1.34419064 -2.99702833,3.00478144 v 19.143419 c 0,1.660592 1.34072193,3.001523 2.99702833,3.001523 H 22.133379 Z"
   style="fill:#ffffff;stroke-width:0.203341"
   inkscape:connector-curvature="0" /><path
   id="path4"
   d="m 3.5467747,1.2113631 c -1.2966641,0 -2.3519535,1.0527101 -2.3519535,2.3462039 v 17.996175 c 0,1.293494 1.0552894,2.344671 2.3519535,2.344671 H 21.585714 c 1.298197,0 2.351953,-1.051177 2.351953,-2.344671 V 3.5577584 c 2e-6,-1.2934939 -1.053754,-2.346204 -2.351953,-2.346204 H 3.5460066 Z"
   style="fill:#ef9235;fill-opacity:1;stroke-width:0.191636"
   inkscape:connector-curvature="0" /><g
   transform="matrix(1.6749886,0,0,1.6721951,-0.02897657,0.01342538)"
   clip-path="url(#clipPath14)"
   id="g12"><g
     id="g10"
     inkscape:label="Clip"><g
       clip-path="url(#clipPath23)"
       id="g21"><g
         id="g19"
         inkscape:label="Clip"><g
           clip-path="url(#clipPath32)"
           id="g30"><g
             id="g28"
             inkscape:label="Clip" /></g></g></g></g></g>
<g
   id="g4"
   transform="matrix(0.0017874,0,0,-0.00159032,7.1785329,22.820224)"
   style="fill:#ffffff;stroke:none"><path
     style="fill:#ffffff"
     sodipodi:nodetypes="cccccccccc"
     id="path2"
     d="M 800,7546.7082 C 800,5212.7082 804,403 809,374 841,207 935,86 1077,28 L 1135,5 2860,2 c 1930,-3 1813,-7 1927,67 66,42 107,90 147,170 59,116 56,3135.7082 56,7294.7082 1.4819,4322.2348 -755.2144,4731.5738 -2147.9115,4795.2328 C 1460.2379,12206.954 807.17336,11818.836 800,7546.7082 Z"
     inkscape:connector-curvature="0" /></g><ellipse
   ry="0.63185477"
   rx="0.54738194"
   cy="11.007698"
   cx="6.9159312"
   id="path28"
   style="opacity:0.02;fill:#2b0000;fill-opacity:1;stroke:#ffffff;stroke-width:0;stroke-miterlimit:4;stroke-dasharray:none;stroke-opacity:1" /><path
   sodipodi:nodetypes="ccccc"
   inkscape:connector-curvature="0"
   id="rect4538"
   d="m 6.8294594,10.716045 11.4451576,0.0053 c 1.483412,2.386105 1.517823,2.906503 0.331486,5.396381 H 6.6770368 C 5.3417274,13.494692 5.3541938,13.174103 6.8294594,10.716045 Z"
   style="opacity:0.99;fill:#ffffff;fill-opacity:1;stroke:#ffffff;stroke-width:0;stroke-miterlimit:4;stroke-dasharray:none;stroke-opacity:1" /><path
   d="M 7.2238336,7.0970297 H 17.760935 V 8.8388996 H 7.2238336 Z"
   style="opacity:0.99;fill:#ffffff;fill-opacity:1;stroke:#ffffff;stroke-width:0;stroke-miterlimit:4;stroke-dasharray:none;stroke-opacity:1"
   id="rect4818" /><rect
   y="12.664183"
   x="4.6237698"
   height="1.6735612"
   width="15.566173"
   id="rect4820"
   style="opacity:0.99;fill:#ffffff;fill-opacity:1;stroke:#ffffff;stroke-width:0;stroke-miterlimit:4;stroke-dasharray:none;stroke-opacity:1" /><ellipse
   ry="2.9372709"
   rx="3.0619175"
   cy="14.610978"
   cx="12.372644"
   id="path4824"
   style="opacity:0.99;fill:#ef9235;fill-opacity:1;stroke:#ffffff;stroke-width:0;stroke-miterlimit:4;stroke-dasharray:none;stroke-opacity:1" /><ellipse
   ry="2.3054161"
   rx="2.3605843"
   cy="14.628055"
   cx="12.355539"
   id="path4826"
   style="opacity:0.99;fill:#ffffff;fill-opacity:1;stroke:#ffffff;stroke-width:0;stroke-miterlimit:4;stroke-dasharray:none;stroke-opacity:1" /><rect
   y="2.2471175"
   x="11.466043"
   height="2.9714253"
   width="1.676357"
   id="rect4830"
   style="opacity:0.99;fill:#ffffff;fill-opacity:1;stroke:#ffffff;stroke-width:0;stroke-miterlimit:4;stroke-dasharray:none;stroke-opacity:1" /></svg>
