<?xml version="1.0" encoding="UTF-8" standalone="no"?>
<svg
   xmlns:dc="http://purl.org/dc/elements/1.1/"
   xmlns:cc="http://creativecommons.org/ns#"
   xmlns:rdf="http://www.w3.org/1999/02/22-rdf-syntax-ns#"
   xmlns:svg="http://www.w3.org/2000/svg"
   xmlns="http://www.w3.org/2000/svg"
   xmlns:sodipodi="http://sodipodi.sourceforge.net/DTD/sodipodi-0.dtd"
   xmlns:inkscape="http://www.inkscape.org/namespaces/inkscape"
   version="1.1"
   id="Layer_1"
   x="0px"
   y="0px"
   width="32"
   height="32"
   viewBox="0 0 32 32"
   xml:space="preserve"
   sodipodi:docname="information.svg"
   inkscape:version="1.0 (4035a4fb49, 2020-05-01)"><metadata
   id="metadata9"><rdf:RDF><cc:Work
       rdf:about=""><dc:format>image/svg+xml</dc:format><dc:type
         rdf:resource="http://purl.org/dc/dcmitype/StillImage" /><dc:title /></cc:Work></rdf:RDF></metadata><defs
   id="defs7"><inkscape:path-effect
     effect="spiro"
     id="path-effect860"
     is_visible="true"
     lpeversion="1" /><inkscape:path-effect
     effect="bspline"
     id="path-effect854"
     is_visible="true"
     lpeversion="1"
     weight="33.333333"
     steps="2"
     helper_size="0"
     apply_no_weight="true"
     apply_with_weight="true"
     only_selected="false" /><inkscape:path-effect
     endcurveend="0,0 , 20,0"
     endcurvestart="0,0 , 20,0"
     endposition="0"
     endpath=""
     startcurveend="0,0 , 20,0"
     startcurvestart="0,0 , 20,0"
     startposition="0"
     startpath=""
     is_visible="true"
     lpeversion="1"
     id="path-effect838"
     effect="attach_path" /></defs><sodipodi:namedview
   pagecolor="#ffffff"
   bordercolor="#666666"
   borderopacity="1"
   objecttolerance="10"
   gridtolerance="10"
   guidetolerance="10"
   inkscape:pageopacity="0"
   inkscape:pageshadow="2"
   inkscape:window-width="1920"
   inkscape:window-height="1017"
   id="namedview5"
   showgrid="false"
   inkscape:snap-nodes="false"
   inkscape:zoom="7.9873916"
   inkscape:cx="18.464257"
   inkscape:cy="-3.6244096"
   inkscape:window-x="-8"
   inkscape:window-y="-8"
   inkscape:window-maximized="1"
   inkscape:current-layer="g855"
   inkscape:document-rotation="0" />
	<path
   inkscape:connector-curvature="0"
   style="fill:#ffffff;stroke-width:0.259048"
   d="M 28.177178,31.99974 C 30.289857,31.99974 32,30.293564 32,28.180665 V 3.8232231 C 32,1.7103211 30.289857,0 28.177178,0 H 3.8228194 C 1.7101399,0 0,1.7103211 0,3.8232231 V 28.180922 C 0,30.293826 1.7101399,32 3.8228194,32 H 28.177178 Z"
   id="path2-3" /><path
   inkscape:connector-curvature="0"
   style="fill:#ef9235;fill-opacity:1;stroke-width:0.254014"
   d="m 4.0058986,1.1452773 c -1.716328,0 -3.11316038,1.3973297 -3.11316038,3.1142668 V 28.147022 c 0,1.716936 1.39683238,3.112233 3.11316038,3.112233 H 27.88312 c 1.718358,0 3.113161,-1.395297 3.113161,-3.112233 V 4.2597981 C 30.996283,2.5428608 29.60148,1.1455314 27.88312,1.1455314 H 4.0048818 Z"
   id="path4" />
<path
   sodipodi:type="star"
   style="fill:#ffffff;fill-rule:evenodd;stroke:#ff0000;stroke-width:0;stroke-linecap:round;stroke-linejoin:round;paint-order:stroke markers fill"
   id="path839"
   sodipodi:sides="5"
   sodipodi:cx="40.767086"
   sodipodi:cy="18.590853"
   sodipodi:r1="0.18250489"
   sodipodi:r2="0.091252446"
   sodipodi:arg1="0.24497866"
   sodipodi:arg2="0.87329719"
   inkscape:flatsided="false"
   inkscape:rounded="0"
   inkscape:randomized="0"
   d="m 40.944142,18.635117 -0.118444,0.02568 -0.046,0.112128 -0.06102,-0.104712 -0.120854,-0.0091 0.08073,-0.09039 -0.02869,-0.117749 0.110915,0.04885 0.103119,-0.06368 -0.01218,0.120581 z"
   inkscape:transform-center-x="-0.0038984747"
   inkscape:transform-center-y="0.013678309" /><g
   id="g855"
   transform="rotate(16.766297,16.965671,16.373946)"><rect
     rx="0.57601923"
     transform="matrix(0.98052311,-0.19640376,0.17104308,0.98526355,0,0)"
     y="13.594606"
     x="8.3237448"
     height="1.4600732"
     width="3.9779828"
     id="rect842"
     style="fill:#ffffff;fill-rule:evenodd;stroke:#004b00;stroke-width:0;stroke-linecap:round;stroke-linejoin:round;paint-order:stroke markers fill" /><rect
     transform="rotate(-6.9920644)"
     style="fill:#ffffff;fill-rule:evenodd;stroke:#004b00;stroke-width:0;stroke-linecap:round;stroke-linejoin:round;paint-order:stroke markers fill"
     id="rect842-1"
     width="4.2057166"
     height="16.562218"
     x="11.548265"
     y="12.755482"
     rx="0.61531204" /><path
     d="M 11.504671,9.1229286 A 2.080405,2.080405 0 0 1 13.595352,7.0529699 2.080405,2.080405 0 0 1 15.66543,9.1435343 2.080405,2.080405 0 0 1 13.574983,11.21373 2.080405,2.080405 0 0 1 11.504668,9.1234004"
     sodipodi:arc-type="arc"
     sodipodi:open="true"
     sodipodi:end="3.1463749"
     sodipodi:start="3.1466017"
     sodipodi:ry="2.080405"
     sodipodi:rx="2.080405"
     sodipodi:cy="9.1333494"
     sodipodi:cx="13.58505"
     sodipodi:type="arc"
     transform="rotate(-6.9920644)"
     id="path859"
     style="fill:#ffffff;fill-rule:evenodd;stroke:#004b00;stroke-width:0;stroke-linecap:round;stroke-linejoin:round;paint-order:stroke markers fill" /><rect
     rx="0.96156067"
     transform="matrix(0.96667114,-0.25602129,0.24116333,0.97048454,0,0)"
     y="29.361338"
     x="7.9257503"
     height="1.77099"
     width="7.357378"
     id="rect861"
     style="fill:#ffffff;fill-rule:evenodd;stroke:#004b00;stroke-width:0;stroke-linecap:round;stroke-linejoin:round;paint-order:stroke markers fill" /></g></svg>
