<?xml version="1.0" encoding="UTF-8" standalone="no"?>
<svg
   xmlns:dc="http://purl.org/dc/elements/1.1/"
   xmlns:cc="http://creativecommons.org/ns#"
   xmlns:rdf="http://www.w3.org/1999/02/22-rdf-syntax-ns#"
   xmlns:svg="http://www.w3.org/2000/svg"
   xmlns="http://www.w3.org/2000/svg"
   xmlns:sodipodi="http://sodipodi.sourceforge.net/DTD/sodipodi-0.dtd"
   xmlns:inkscape="http://www.inkscape.org/namespaces/inkscape"
   inkscape:version="1.0.2-2 (e86c870879, 2021-01-15)"
   sodipodi:docname="tree.svg"
   xml:space="preserve"
   style="enable-background:new 0 0 84.6 80.5;"
   viewBox="0 0 84.6 80.5"
   y="0px"
   x="0px"
   id="Layer_1"
   version="1.1"><metadata
   id="metadata21"><rdf:RDF><cc:Work
       rdf:about=""><dc:format>image/svg+xml</dc:format><dc:type
         rdf:resource="http://purl.org/dc/dcmitype/StillImage" /></cc:Work></rdf:RDF></metadata><defs
   id="defs19"><inkscape:perspective
   id="perspective846"
   inkscape:persp3d-origin="42.3 : 26.833333 : 1"
   inkscape:vp_z="84.6 : 40.25 : 1"
   inkscape:vp_y="0 : 1000 : 0"
   inkscape:vp_x="0 : 40.25 : 1"
   sodipodi:type="inkscape:persp3d" />
	
	
	
	
	
</defs><sodipodi:namedview
   inkscape:current-layer="Layer_1"
   inkscape:window-maximized="1"
   inkscape:window-y="-8"
   inkscape:window-x="-8"
   inkscape:cy="48.950156"
   inkscape:cx="-13.287656"
   inkscape:zoom="5.395951"
   showgrid="false"
   id="namedview17"
   inkscape:window-height="1017"
   inkscape:window-width="1920"
   inkscape:pageshadow="2"
   inkscape:pageopacity="0"
   guidetolerance="10"
   gridtolerance="10"
   objecttolerance="10"
   borderopacity="1"
   bordercolor="#666666"
   pagecolor="#ffffff"
   inkscape:document-rotation="0" />
<style
   id="style2"
   type="text/css">
	.st0{fill:#F49AC1;}
</style>
<rect
   ry="1.5046854"
   rx="1.4773068"
   y="45.661037"
   x="39.676041"
   height="23.61208"
   width="7.2190471"
   id="rect857"
   style="fill:#964800;fill-rule:evenodd;stroke:#762c00;stroke-width:3;stroke-linecap:round;stroke-linejoin:round;stroke-miterlimit:4;stroke-dasharray:none;stroke-opacity:1;paint-order:stroke markers fill;fill-opacity:1" />
<path
   id="path893"
   style="fill:#006800;fill-opacity:1;stroke:#005400;stroke-width:3.51737;stroke-linecap:round;stroke-linejoin:round;stroke-miterlimit:4;stroke-dasharray:none;stroke-opacity:1;paint-order:stroke fill markers"
   d="m 43.702649,11.63941 a 8.5407505,10.50641 0 0 0 -8.205078,7.597657 8.2591724,8.3902168 0 0 0 -1.951172,-0.238282 8.2591724,8.3902168 0 0 0 -8.257813,8.388672 8.2591724,8.3902168 0 0 0 5.044922,7.730469 8.5815725,8.1229181 0 0 0 -1.699218,4.849609 8.5815725,8.1229181 0 0 0 8.582031,8.123047 8.5815725,8.1229181 0 0 0 6.886719,-3.277344 8.4500799,8.2535143 0 0 0 6.742187,3.277344 8.4500799,8.2535143 0 0 0 8.449219,-8.253906 8.4500799,8.2535143 0 0 0 -2.429688,-5.791016 7.451839,8.1725807 0 0 0 4.511719,-7.509765 7.451839,8.1725807 0 0 0 -7.451172,-8.171875 7.451839,8.1725807 0 0 0 -2.152344,0.347656 8.5407505,10.50641 0 0 0 -8.070312,-7.072266 z" /></svg>
