<?xml version="1.0" encoding="UTF-8" standalone="no"?>
<svg
   xmlns:dc="http://purl.org/dc/elements/1.1/"
   xmlns:cc="http://creativecommons.org/ns#"
   xmlns:rdf="http://www.w3.org/1999/02/22-rdf-syntax-ns#"
   xmlns:svg="http://www.w3.org/2000/svg"
   xmlns="http://www.w3.org/2000/svg"
   xmlns:xlink="http://www.w3.org/1999/xlink"
   xmlns:sodipodi="http://sodipodi.sourceforge.net/DTD/sodipodi-0.dtd"
   xmlns:inkscape="http://www.inkscape.org/namespaces/inkscape"
   inkscape:version="1.0 (4035a4fb49, 2020-05-01)"
   sodipodi:docname="wikipedia_orange.svg"
   xml:space="preserve"
   viewBox="0 0 64 64"
   height="64"
   width="64"
   y="0px"
   x="0px"
   id="Layer_1"
   version="1.1"><metadata
   id="metadata9"><rdf:RDF><cc:Work
       rdf:about=""><dc:format>image/svg+xml</dc:format><dc:type
         rdf:resource="http://purl.org/dc/dcmitype/StillImage" /><dc:title /></cc:Work></rdf:RDF></metadata><defs
   id="defs7"><inkscape:perspective
     id="perspective857"
     inkscape:persp3d-origin="6 : 56 : 1"
     inkscape:vp_z="12 : 58 : 1"
     inkscape:vp_y="0 : 800 : 0"
     inkscape:vp_x="0 : 58 : 1"
     sodipodi:type="inkscape:persp3d" /><clipPath
     id="clipPath14"
     clipPathUnits="userSpaceOnUse"><use
       height="100%"
       width="100%"
       id="use16"
       xlink:href="#g10"
       y="0"
       x="0" /></clipPath><clipPath
     id="clipPath23"
     clipPathUnits="userSpaceOnUse"><use
       height="100%"
       width="100%"
       id="use25"
       xlink:href="#g19"
       y="0"
       x="0" /></clipPath><clipPath
     id="clipPath32"
     clipPathUnits="userSpaceOnUse"><use
       height="100%"
       width="100%"
       id="use34"
       xlink:href="#g28"
       y="0"
       x="0" /></clipPath><clipPath
     id="clipPath850"
     clipPathUnits="userSpaceOnUse"><g
       inkscape:label="Clip"
       id="use852"><path
         sodipodi:nodetypes="sssss"
         style="opacity:1;fill:#000000;fill-opacity:1;stroke:#ffffff;stroke-width:0;stroke-miterlimit:4;stroke-dasharray:none;stroke-opacity:1"
         inkscape:transform-center-x="1.0389363"
         inkscape:transform-center-y="-0.25547613"
         d="M 10.798125,7.7785411 C 10.78472,10.863802 11.338269,13.374421 7.4088075,13.364952 3.840679,13.356352 4.3430938,11.034148 4.3430938,7.9488586 c 0,-3.7835914 -0.019272,-4.1195779 2.912428,-4.1216818 3.5788872,-0.00257 3.5596342,0.031519 3.5426032,3.9513643 z"
         id="path880"
         inkscape:connector-curvature="0" /></g></clipPath><clipPath
     clipPathUnits="userSpaceOnUse"
     id="clipPath932"><use
       x="0"
       y="0"
       xlink:href="#g928"
       id="use934" /></clipPath></defs><sodipodi:namedview
   inkscape:document-rotation="0"
   inkscape:current-layer="Layer_1"
   inkscape:window-maximized="0"
   inkscape:window-y="0"
   inkscape:window-x="58"
   inkscape:cy="29.71346"
   inkscape:cx="38.077128"
   inkscape:zoom="8"
   inkscape:snap-nodes="true"
   showgrid="false"
   id="namedview5"
   inkscape:window-height="1040"
   inkscape:window-width="1644"
   inkscape:pageshadow="2"
   inkscape:pageopacity="0"
   guidetolerance="10"
   gridtolerance="10"
   objecttolerance="10"
   borderopacity="1"
   bordercolor="#666666"
   pagecolor="#ffffff"
   inkscape:snap-bbox="true" />
	<path
   id="path2-3"
   d="m 56.530831,64.008551 c 4.23537,0 7.663762,-3.413901 7.663762,-7.641617 V 7.6299437 c 0,-4.2277219 -3.428392,-7.64991614 -7.663762,-7.64991614 H 7.7066861 c -4.2353721,0 -7.66375713,3.42219424 -7.66375713,7.64991614 V 56.367449 c 0,4.227724 3.42838503,7.641621 7.66375713,7.641621 H 56.530831 Z"
   style="fill:#ffffff;stroke-width:0.518828"
   inkscape:connector-curvature="0" /><path
   id="path4"
   d="m 10.340319,4.6169052 c -3.1129592,0 -5.6464394,2.54652 -5.6464394,5.6754988 v 43.53299 c 0,3.128978 2.5334802,5.671792 5.6464394,5.671792 h 43.306884 c 3.116642,0 5.64644,-2.542814 5.64644,-5.671792 V 10.292867 c 4e-6,-3.1289791 -2.529794,-5.6754992 -5.64644,-5.6754992 H 10.338475 Z"
   style="fill:#ef9235;fill-opacity:1;stroke-width:0.461817"
   inkscape:connector-curvature="0" /><g
   transform="matrix(4.2831446,0,0,4.2572656,-0.14094202,0.06505554)"
   clip-path="url(#clipPath14)"
   id="g12"><g
     id="g10"
     inkscape:label="Clip"><g
       clip-path="url(#clipPath23)"
       id="g21"><g
         id="g19"
         inkscape:label="Clip"><g
           clip-path="url(#clipPath32)"
           id="g30"><g
             id="g28"
             inkscape:label="Clip" /></g></g></g></g></g>
<text
   id="text851"
   y="47.625"
   x="13.125"
   style="font-style:normal;font-weight:normal;font-size:40px;line-height:1.25;font-family:sans-serif;letter-spacing:0px;word-spacing:0px;fill:#000000;fill-opacity:1;stroke:none"
   xml:space="preserve"><tspan
     style="font-style:normal;font-variant:normal;font-weight:normal;font-stretch:normal;font-family:'Liberation Serif';-inkscape-font-specification:'Liberation Serif'"
     y="47.625"
     x="13.125"
     id="tspan849"
     sodipodi:role="line" /></text><text
   id="text852-5"
   y="49.253906"
   x="25.639648"
   style="font-style:normal;font-weight:normal;font-size:40px;line-height:1;font-family:sans-serif;letter-spacing:0px;word-spacing:0px;fill:#000000;fill-opacity:1;stroke:none"
   xml:space="preserve"><tspan
     style="font-style:normal;font-variant:normal;font-weight:normal;font-stretch:normal;font-family:'Linux Libertine Capitals';-inkscape-font-specification:'Linux Libertine Capitals'"
     y="49.253906"
     x="25.639648"
     id="tspan850-2"
     sodipodi:role="line" /></text><path
   id="rect908"
   style="fill:#ffffff;fill-rule:evenodd;stroke-width:13.0063;stroke-linecap:round;stroke-linejoin:round;paint-order:stroke markers fill"
   d="m 6.7342542,15.938496 c -0.1769118,0 -0.3200406,0.139753 -0.3200406,0.314807 v 0.567778 c 0,0.175054 0.1431288,0.31668 0.3200406,0.31668 H 9.665751 l 13.23529,34.227784 h 2.98831 l 5.614914,-14.007044 5.427434,14.037026 h 2.990203 L 53.653351,17.137761 h 4.253321 c 0.176913,0 0.320041,-0.141626 0.320041,-0.31668 v -0.567778 c 0,-0.175054 -0.143128,-0.314807 -0.320041,-0.314807 H 46.623819 c -0.176912,0 -0.320041,0.139753 -0.320041,0.314807 v 0.567778 c 0,0.175054 0.143129,0.31668 0.320041,0.31668 h 3.813976 L 39.501494,45.168717 34.11572,30.84499 39.579137,17.216463 h 3.474997 c 0.176911,0 0.320041,-0.141627 0.320041,-0.316681 v -0.646479 c 0,-0.175054 -0.14313,-0.314807 -0.320041,-0.314807 h -9.80953 c -0.176911,0 -0.318147,0.139753 -0.318147,0.314807 v 0.646479 c 0,0.175054 0.141236,0.316681 0.318147,0.316681 h 3.118976 l -3.75527,9.622231 -3.617028,-9.622231 h 2.242179 c 0.176911,0 0.318147,-0.141627 0.318147,-0.316681 v -0.646479 c 0,-0.175054 -0.141236,-0.314807 -0.318147,-0.314807 h -9.80953 c -0.176912,0 -0.320041,0.139753 -0.320041,0.314807 v 0.646479 c 0,0.175054 0.143129,0.316681 0.320041,0.316681 H 23.71724 L 30.012004,33.496491 25.468942,45.138735 14.941687,17.137761 h 2.677737 c 0.176912,0 0.318147,-0.141626 0.318147,-0.31668 v -0.567778 c 0,-0.175054 -0.141235,-0.314807 -0.318147,-0.314807 z" /><g
   id="g930"
   clip-path="url(#clipPath932)"
   transform="translate(-0.06785349,-0.18749724)"><g
     inkscape:label="Clip"
     id="g928" /></g></svg>
