<?xml version="1.0" encoding="UTF-8" standalone="no"?>
<svg
   xmlns:dc="http://purl.org/dc/elements/1.1/"
   xmlns:cc="http://creativecommons.org/ns#"
   xmlns:rdf="http://www.w3.org/1999/02/22-rdf-syntax-ns#"
   xmlns:svg="http://www.w3.org/2000/svg"
   xmlns="http://www.w3.org/2000/svg"
   xmlns:sodipodi="http://sodipodi.sourceforge.net/DTD/sodipodi-0.dtd"
   xmlns:inkscape="http://www.inkscape.org/namespaces/inkscape"
   inkscape:version="1.0 (4035a4fb49, 2020-05-01)"
   sodipodi:docname="bakery.svg"
   xml:space="preserve"
   viewBox="0 0 32 32"
   height="32"
   width="32"
   y="0px"
   x="0px"
   id="Layer_1"
   version="1.1"><metadata
   id="metadata9"><rdf:RDF><cc:Work
       rdf:about=""><dc:format>image/svg+xml</dc:format><dc:type
         rdf:resource="http://purl.org/dc/dcmitype/StillImage" /><dc:title /></cc:Work></rdf:RDF></metadata><defs
   id="defs7"><clipPath
     id="clipPath869"
     clipPathUnits="userSpaceOnUse"><g
       inkscape:label="Clip"
       id="use871"
       style="fill:#000000;fill-opacity:1;stroke-width:0.126027;stroke-miterlimit:4;stroke-dasharray:none"><rect
         y="2.1281509"
         x="6.4554863"
         height="11.619875"
         width="7.0423493"
         id="rect898"
         style="fill:#000000;fill-opacity:1;stroke:#ffffff;stroke-width:0.126027;stroke-miterlimit:4;stroke-dasharray:none;stroke-opacity:1" /></g></clipPath><clipPath
     id="clipPath882"
     clipPathUnits="userSpaceOnUse"><g
       id="use884"
       inkscape:label="Clip"><g
         id="g894"
         clip-path="url(#clipPath869)"
         transform="matrix(0.95555556,0,0,1.023569,0.59990377,-0.05015844)"
         style="fill:#000000;fill-opacity:1;stroke-width:0.126027;stroke-miterlimit:4;stroke-dasharray:none"><g
           inkscape:label="Clip"
           id="g892"
           style="fill:#000000;fill-opacity:1;stroke-width:0.126027;stroke-miterlimit:4;stroke-dasharray:none"><rect
             y="2.1281509"
             x="6.4554863"
             height="11.619875"
             width="7.0423493"
             id="rect890"
             style="fill:#000000;fill-opacity:1;stroke:#ffffff;stroke-width:0.126027;stroke-miterlimit:4;stroke-dasharray:none;stroke-opacity:1" /></g></g></g></clipPath></defs><sodipodi:namedview
   inkscape:document-rotation="0"
   inkscape:snap-global="false"
   inkscape:snap-bbox="false"
   inkscape:current-layer="Layer_1"
   inkscape:window-maximized="0"
   inkscape:window-y="108"
   inkscape:window-x="349"
   inkscape:cy="10.3818"
   inkscape:cx="9.4672335"
   inkscape:zoom="6.4939096"
   inkscape:snap-nodes="false"
   showgrid="false"
   id="namedview5"
   inkscape:window-height="859"
   inkscape:window-width="1317"
   inkscape:pageshadow="2"
   inkscape:pageopacity="0"
   guidetolerance="10"
   gridtolerance="10"
   objecttolerance="10"
   borderopacity="1"
   bordercolor="#666666"
   pagecolor="#ffffff" />
	
<path
   inkscape:connector-curvature="0"
   style="display:inline;opacity:1;fill:#ffffff;fill-opacity:1;stroke:none;stroke-width:0.565371;stroke-miterlimit:4;stroke-dasharray:none"
   d="M 3.3092818,0 C 1.4848302,0 0,1.4788176 0,3.2958784 V 28.576382 c 0,1.817086 1.4848302,3.293731 3.3092818,3.293731 H 28.690697 C 30.517335,31.870113 32,30.393467 32,28.576382 V 3.2961491 C 32.000001,1.4790841 30.517337,2.6920775e-4 28.690697,2.6920775e-4 H 3.308203 Z"
   id="path4-5"
   inkscape:label="path4" /><path
   inkscape:label="path4"
   id="path4"
   d="m 4.2323913,1.1590848 c -1.6917449,0 -3.0685701,1.3712492 -3.0685701,3.0561404 V 27.656885 c 0,1.684873 1.3768252,3.054143 3.0685701,3.054143 H 27.767627 c 1.693754,0 3.068552,-1.36927 3.068552,-3.054143 V 4.2154756 C 30.83618,2.5305838 29.461382,1.159333 27.767627,1.159333 H 4.2313923 Z"
   style="display:inline;opacity:1;fill:#ef9235;fill-opacity:1;stroke:none;stroke-width:0.524223;stroke-miterlimit:4;stroke-dasharray:none"
   inkscape:connector-curvature="0" /><path
   id="path814"
   d="M 15.999995,4.0708507 A 11.883584,5.801264 0 0 0 4.1148267,9.8713339 11.883584,5.801264 0 0 0 5.5637817,12.634137 v 13.38536 c 0,0.982333 0.9739616,1.779765 2.1664456,1.779765 H 24.316355 c 1.193879,0 2.166435,-0.797432 2.166435,-1.779765 V 12.596871 A 11.883584,5.801264 0 0 0 27.885173,9.8713339 11.883584,5.801264 0 0 0 15.999995,4.0708507 Z"
   style="fill:#ffffff;fill-opacity:1;stroke:#ffffff;stroke-width:0.273653;stroke-miterlimit:4;stroke-dasharray:none;stroke-opacity:1" /></svg>
