<?xml version="1.0" encoding="UTF-8" standalone="no"?>
<svg
   xmlns:dc="http://purl.org/dc/elements/1.1/"
   xmlns:cc="http://creativecommons.org/ns#"
   xmlns:rdf="http://www.w3.org/1999/02/22-rdf-syntax-ns#"
   xmlns:svg="http://www.w3.org/2000/svg"
   xmlns="http://www.w3.org/2000/svg"
   xmlns:sodipodi="http://sodipodi.sourceforge.net/DTD/sodipodi-0.dtd"
   xmlns:inkscape="http://www.inkscape.org/namespaces/inkscape"
   inkscape:version="1.0 (4035a4fb49, 2020-05-01)"
   sodipodi:docname="bar.svg"
   xml:space="preserve"
   viewBox="0 0 32 32"
   height="32"
   width="32"
   y="0px"
   x="0px"
   id="Layer_1"
   version="1.1"><metadata
   id="metadata9"><rdf:RDF><cc:Work
       rdf:about=""><dc:format>image/svg+xml</dc:format><dc:type
         rdf:resource="http://purl.org/dc/dcmitype/StillImage" /><dc:title></dc:title></cc:Work></rdf:RDF></metadata><defs
   id="defs7"><inkscape:path-effect
     endcurveend="0,0 , 20,0"
     endcurvestart="0,0 , 20,0"
     endposition="0"
     endpath=""
     startcurveend="0,0 , 20,0"
     startcurvestart="0,0 , 20,0"
     startposition="0"
     startpath=""
     is_visible="true"
     effect="attach_path"
     id="path-effect838"
     lpeversion="1" /></defs><sodipodi:namedview
   inkscape:document-rotation="0"
   inkscape:current-layer="Layer_1"
   inkscape:window-maximized="0"
   inkscape:window-y="0"
   inkscape:window-x="679"
   inkscape:cy="8.735581"
   inkscape:cx="13.772196"
   inkscape:zoom="11.295878"
   inkscape:snap-nodes="false"
   showgrid="false"
   id="namedview5"
   inkscape:window-height="1018"
   inkscape:window-width="1225"
   inkscape:pageshadow="2"
   inkscape:pageopacity="0"
   guidetolerance="10"
   gridtolerance="10"
   objecttolerance="10"
   borderopacity="1"
   bordercolor="#666666"
   pagecolor="#ffffff" />
	<path
   id="path2-3"
   d="m 28.198141,31.928538 c 2.111031,0 3.819841,-1.694003 3.819841,-3.79183 V 3.9530317 c 0,-2.0978287 -1.70881,-3.7959484 -3.819841,-3.7959484 H 3.8627682 c -2.1110325,0 -3.81983923,1.6981197 -3.81983923,3.7959484 V 28.136964 c 0,2.09783 1.70880673,3.791833 3.81983923,3.791833 H 28.198141 Z"
   style="fill:#ffffff;stroke-width:0.258022"
   inkscape:connector-curvature="0" /><path
   id="path4"
   d="m 4.0457047,1.2941902 c -1.71499,0 -3.11073347,1.3873612 -3.11073347,3.0920497 V 28.103305 c 0,1.704689 1.39574347,3.090031 3.11073347,3.090031 H 27.904311 c 1.717019,0 3.110735,-1.385342 3.110735,-3.090031 V 4.3864922 c 2e-6,-1.7046888 -1.393714,-3.0920498 -3.110735,-3.0920498 H 4.0446887 Z"
   style="fill:#ef9235;fill-opacity:1;stroke-width:0.253008"
   inkscape:connector-curvature="0" />
<g
   id="g883"
   transform="matrix(2.3900338,0.36000636,-0.35679915,2.4115175,-1.6368967,-1.9451742)"><path
     sodipodi:nodetypes="sssssssss"
     d="m 5.2265017,4.7913195 h 0.8787632 c 0.918066,0 1.6428773,0.9287316 1.6428773,1.4532211 v 5.2651454 c 0,0.236779 -0.226842,0.485563 -0.508614,0.485563 H 4.0369084 c -0.2817721,0 -0.4941639,-0.21058 -0.4947815,-0.447367 L 3.5282944,6.2445406 C 3.5270592,5.7709818 4.2894275,4.7913195 5.2265017,4.7913195 Z"
     style="opacity:0.986;fill:#ffffff;stroke-width:1.37689;stroke-linecap:round;stroke-linejoin:round;paint-order:fill markers stroke"
     id="rect836" /><rect
     ry="0.57065624"
     rx="0.50861371"
     y="1.6460651"
     x="4.9243631"
     height="4.3710637"
     width="1.4385779"
     id="rect879"
     style="opacity:0.986;fill:#ffffff;stroke-width:1.125;stroke-linecap:round;stroke-linejoin:round;paint-order:fill markers stroke" /></g><g
   id="g914"
   transform="matrix(2.7836281,-0.33907775,0.3699893,2.5510639,-11.914029,-0.5693576)"><path
     sodipodi:nodetypes="cccc"
     id="path887"
     d="m 9.6673242,8.0070992 3.0359738,0.022754 -1.487007,1.7065557 z"
     style="fill:#ffffff;fill-opacity:1;stroke:#ffffff;stroke-width:0.847751;stroke-linecap:butt;stroke-linejoin:round;stroke-miterlimit:4;stroke-dasharray:none;stroke-opacity:1" /><rect
     ry="0.41978234"
     rx="0.58087569"
     y="11.716111"
     x="9.7657309"
     height="0.53255022"
     width="2.8909879"
     id="rect907"
     style="opacity:0.986;fill:#ffffff;fill-opacity:1;stroke:#ffffff;stroke-width:0;stroke-linecap:round;stroke-linejoin:round;stroke-miterlimit:4;stroke-dasharray:none;stroke-opacity:1;paint-order:fill markers stroke" /><rect
     ry="0.332555"
     rx="0.50861371"
     y="9.6827354"
     x="10.969156"
     height="2.2546942"
     width="0.4564718"
     id="rect909"
     style="opacity:0.986;fill:#ffffff;fill-opacity:1;stroke:#ffffff;stroke-width:0;stroke-linecap:round;stroke-linejoin:round;stroke-miterlimit:4;stroke-dasharray:none;stroke-opacity:1;paint-order:fill markers stroke" /></g><rect
   style="opacity:0.986;fill:#ef9235;fill-opacity:1;stroke:#ffffff;stroke-width:0;stroke-linecap:round;stroke-linejoin:round;stroke-miterlimit:4;stroke-dasharray:none;stroke-opacity:1;paint-order:fill markers stroke"
   id="rect916"
   width="6.8254309"
   height="7.1582632"
   x="8.2736855"
   y="18.344532"
   rx="1.3071239"
   ry="0.58937037"
   transform="matrix(0.98628994,0.1650217,-0.13919792,0.99026458,0,0)" /></svg>
