<?xml version="1.0" encoding="utf-8"?>
<!-- Generator: Adobe Illustrator 13.0.0, SVG Export Plug-In . SVG Version: 6.00 Build 14948)  -->
<!DOCTYPE svg PUBLIC "-//W3C//DTD SVG 1.0//EN" "http://www.w3.org/TR/2001/REC-SVG-20010904/DTD/svg10.dtd">
<svg version="1.0" xmlns="http://www.w3.org/2000/svg" xmlns:xlink="http://www.w3.org/1999/xlink" x="0px" y="0px" width="580px"
	 height="580px" viewBox="0 0 580 580" enable-background="new 0 0 580 580" xml:space="preserve">
<g id="地図記号">
	<path d="M253.221,74.645l58.253,104.663l75.092-132.921l60.246,136.629l75.253-158.515l-18.683-8.836l-55.864,117.672
		L388.835,0.334l-77.232,136.69L253.221,32.119V7.744h-34.45v300.271h1.063l-161.9,271.65h356.123l-9.334-15.62l-152.592-256.03
		h1.09V74.645z M377.642,558.985H94.33l141.663-237.685L377.642,558.985z M199.813,479.291c0,21.246,17.228,38.473,38.481,38.473
		c21.252,0,38.475-17.227,38.475-38.473c0-21.253-17.222-38.481-38.475-38.481C217.041,440.81,199.813,458.038,199.813,479.291z"/>
</g>
<g id="ガイド">
</g>
</svg>
