<?xml version="1.0" encoding="utf-8"?>
<!-- Generator: Adobe Illustrator 13.0.0, SVG Export Plug-In . SVG Version: 6.00 Build 14948)  -->
<!DOCTYPE svg PUBLIC "-//W3C//DTD SVG 1.0//EN" "http://www.w3.org/TR/2001/REC-SVG-20010904/DTD/svg10.dtd">
<svg version="1.0" xmlns="http://www.w3.org/2000/svg" xmlns:xlink="http://www.w3.org/1999/xlink" x="0px" y="0px" width="580px"
	 height="580px" viewBox="0 0 580 580" enable-background="new 0 0 580 580" xml:space="preserve">
<g id="地図記号">
	<path fill="#436BFC" d="M564.388,92.707C534.652,29.517,441.414,4.236,301.328,1.848l0.002-0.206
		c-3.817,0-7.578,0.026-11.332,0.059c-3.75-0.032-7.512-0.059-11.329-0.059l0.004,0.206C138.586,4.236,45.35,29.517,15.616,92.707
		c-27.692,58.847-14.767,151.28,14.791,209.323c27.238,53.48,61.646,106.932,92.009,147.414
		c46.968,62.625,78.283,90.582,97.693,105.924c14.704,11.621,40.675,21.385,66.719,22.799l0.002,0.191
		c1.055,0,2.111-0.045,3.167-0.076c1.06,0.031,2.117,0.076,3.173,0.076l0.004-0.191c26.039-1.414,52.012-11.178,66.717-22.799
		c19.41-15.342,50.725-43.299,97.693-105.924c30.366-40.482,64.771-93.934,92.005-147.414
		C579.151,243.986,592.074,151.554,564.388,92.707z"/>
</g>
<g id="ガイド">
</g>
</svg>
