<?xml version="1.0" encoding="utf-8"?>
<!-- Generator: Adobe Illustrator 17.0.0, SVG Export Plug-In . SVG Version: 6.00 Build 0)  -->
<!DOCTYPE svg PUBLIC "-//W3C//DTD SVG 1.0//EN" "http://www.w3.org/TR/2001/REC-SVG-20010904/DTD/svg10.dtd">
<svg version="1.0" xmlns="http://www.w3.org/2000/svg" xmlns:xlink="http://www.w3.org/1999/xlink" x="0px" y="0px" width="580px"
	 height="580px" viewBox="0 0 580 580" enable-background="new 0 0 580 580" xml:space="preserve">
<g id="地図記号">
	<path d="M510.496,276.656l33.604,27.116l35.607-44.071L299.115,33.332L0.293,259.135l34.15,45.198l34.347-25.955v211.626H15.275
		v56.664h548.719v-56.664h-53.498V276.656z M121.949,238.209l176.033-133.011l155.846,125.744v259.062h-69.949V266.229
		c-0.086-49.403-38.902-90.635-88.644-90.758c-49.729,0.123-88.564,41.355-88.656,90.758v55.353h56.651v-55.353
		c0.074-19.563,15.111-34.077,32.005-34.113c16.914,0.036,31.914,14.533,32.002,34.113l-0.025,223.775H125.429V238.209H121.949z"/>
</g>
<g id="ガイド">
</g>
</svg>
