<?xml version="1.0" encoding="utf-8"?>
<!-- Generator: Adobe Illustrator 17.0.0, SVG Export Plug-In . SVG Version: 6.00 Build 0)  -->
<!DOCTYPE svg PUBLIC "-//W3C//DTD SVG 1.0//EN" "http://www.w3.org/TR/2001/REC-SVG-20010904/DTD/svg10.dtd">
<svg version="1.0" xmlns="http://www.w3.org/2000/svg" xmlns:xlink="http://www.w3.org/1999/xlink" x="0px" y="0px" width="580px"
	 height="580px" viewBox="0 0 580 580" enable-background="new 0 0 580 580" xml:space="preserve">
<g id="地図記号">
	<path d="M0.826,290.026C0.855,130.082,130.477,0.46,290.417,0.432l0,0C450.36,0.46,579.982,130.082,580.002,290.026l0,0
		c-0.02,159.938-129.642,289.557-289.585,289.585l0,0C130.477,579.583,0.855,449.965,0.826,290.026L0.826,290.026z M129.79,129.396
		C88.632,170.6,63.263,227.194,63.257,290.026l0,0c0.007,62.823,25.375,119.417,66.533,160.626l0,0
		c41.208,41.158,97.802,66.513,160.627,66.533l0,0c62.831-0.021,119.412-25.375,160.628-66.533l0,0
		c41.16-41.209,66.52-97.803,66.539-160.626l0,0c-0.019-62.833-25.379-119.426-66.539-160.631l0,0
		c-41.216-41.163-97.797-66.527-160.628-66.539l0,0C227.592,62.869,170.997,88.232,129.79,129.396L129.79,129.396z"/>
</g>
<g id="ガイド">
</g>
</svg>
