<?xml version="1.0" encoding="utf-8"?>
<!-- Generator: Adobe Illustrator 17.0.0, SVG Export Plug-In . SVG Version: 6.00 Build 0)  -->
<!DOCTYPE svg PUBLIC "-//W3C//DTD SVG 1.0//EN" "http://www.w3.org/TR/2001/REC-SVG-20010904/DTD/svg10.dtd">
<svg version="1.0" xmlns="http://www.w3.org/2000/svg" xmlns:xlink="http://www.w3.org/1999/xlink" x="0px" y="0px" width="580px"
	 height="580px" viewBox="0 0 580 580" enable-background="new 0 0 580 580" xml:space="preserve">
<g id="地図記号">
	<path d="M290.007,0.729C130.219,0.742,0.741,130.221,0.728,289.994c0.013,159.785,129.491,289.264,289.278,289.277
		c159.766-0.014,289.245-129.492,289.265-289.277C579.252,130.221,449.772,0.742,290.007,0.729z M479.198,160.821H320.092V62.942
		c51.243,6.712,97.049,30.248,131.907,65.059C462.052,138.068,471.146,149.063,479.198,160.821z M340.422,220.978L290,271.407
		l-50.429-50.43H340.422z M259.922,62.936v97.885H100.796c8.049-11.758,17.15-22.753,27.204-32.82
		C162.844,93.183,208.663,69.647,259.922,62.936z M60.89,289.994c0.008-24.085,3.729-47.256,10.59-69.017h82.995l92.976,92.976
		L118.997,442.42C82.842,401.865,60.905,348.629,60.89,289.994z M164.713,481.785l125.28-125.283L415.28,481.791
		c-36.006,23.576-78.946,37.305-125.273,37.318C243.665,519.096,200.712,505.361,164.713,481.785z M461.008,442.414L332.547,313.947
		l92.972-92.97h82.979c6.861,21.761,10.584,44.932,10.59,69.017C519.068,348.623,497.153,401.859,461.008,442.414z"/>
</g>
<g id="ガイド">
</g>
</svg>
