<?xml version="1.0" encoding="utf-8"?>
<!-- Generator: Adobe Illustrator 17.0.0, SVG Export Plug-In . SVG Version: 6.00 Build 0)  -->
<!DOCTYPE svg PUBLIC "-//W3C//DTD SVG 1.0//EN" "http://www.w3.org/TR/2001/REC-SVG-20010904/DTD/svg10.dtd">
<svg version="1.0" id="レイヤー_1" xmlns="http://www.w3.org/2000/svg" xmlns:xlink="http://www.w3.org/1999/xlink" x="0px"
	 y="0px" width="612px" height="792px" viewBox="0 0 612 792" enable-background="new 0 0 612 792" xml:space="preserve">
<g>
	<path d="M305.75,331.5c-36,0-65,29.25-65,65c0,36,29,65,65,65s65-29,65-65C370.75,360.75,341.75,331.5,305.75,331.5L305.75,331.5z
		 M595.25,421c0-49,0-49,0-49c-103.5,0-103.5,0-103.5,0c-4.25-33.5-17.5-64.25-37-89.75c73.25-73,73.25-73,73.25-73
		c-34.75-34.75-34.75-34.75-34.75-34.75c-73.25,73-73.25,73-73.25,73c-25.5-19.5-56.25-32.75-89.75-37c0-103.5,0-103.5,0-103.5
		c-49,0-49,0-49,0c0,103.5,0,103.5,0,103.5c-36,4.75-68.75,19.5-95.25,41.5c-67.75-67.75-67.75-67.75-67.75-67.75
		C83.5,219,83.5,219,83.5,219c69,69,69,69,69,69c-17.25,24.25-28.75,53-33,84C16,372,16,372,16,372c0,49,0,49,0,49
		c103.5,0,103.5,0,103.5,0c4.5,33.5,17.75,64.25,37.25,89.75C83.5,584,83.5,584,83.5,584c34.75,34.75,34.75,34.75,34.75,34.75
		c73.25-73.25,73.25-73.25,73.25-73.25c25.5,19.75,56.25,32.75,89.75,37.25c0,103.5,0,103.5,0,103.5c49,0,49,0,49,0
		c0-103.5,0-103.5,0-103.5c31-4,59.75-15.75,84-33c79,78.75,79,78.75,79,78.75c34.5-34.75,34.5-34.75,34.5-34.75
		c-77.5-77.5-77.5-77.5-77.5-77.5c22-26.5,37-59.25,41.5-95.25H595.25z M305.75,535.25C229,535,167.25,473.25,167,396.5
		C167.25,320,229,258,305.75,258c76.5,0,138.5,62,138.75,138.5C444.25,473.25,382.25,535,305.75,535.25L305.75,535.25z"/>
</g>
</svg>
