<?xml version="1.0" encoding="utf-8"?>
<!-- Generator: Adobe Illustrator 17.0.0, SVG Export Plug-In . SVG Version: 6.00 Build 0)  -->
<!DOCTYPE svg PUBLIC "-//W3C//DTD SVG 1.0//EN" "http://www.w3.org/TR/2001/REC-SVG-20010904/DTD/svg10.dtd">
<svg version="1.0" xmlns="http://www.w3.org/2000/svg" xmlns:xlink="http://www.w3.org/1999/xlink" x="0px" y="0px" width="580px"
	 height="580px" viewBox="0 0 580 580" enable-background="new 0 0 580 580" xml:space="preserve">
<g id="地図記号">
	<path d="M349.467,280.53l180.389,45.763l9.366-36.94l-182.265-46.24c-0.223-52.174-42.571-94.409-94.792-94.431
		c-4.809,0-9.492,0.477-14.115,1.168L206.031,0.581L169.32,10.907l42.854,152.143c-26.877,16.736-44.833,46.463-44.84,80.45
		c0,10.735,1.868,21.017,5.158,30.635L40.778,405.85l26.957,26.95l124.94-124.925c13.207,14.249,30.665,24.501,50.432,28.536v204.89
		H140.189v38.118h243.956v-38.118H281.209V336.419C312.051,330.12,337.437,308.851,349.467,280.53z M205.458,243.5
		c0.053-31.314,25.395-56.641,56.707-56.693c31.298,0.052,56.644,25.379,56.689,56.693c-0.046,31.313-25.392,56.641-56.689,56.693
		C230.852,300.141,205.51,274.812,205.458,243.5z"/>
</g>
<g id="ガイド">
</g>
</svg>
