<?xml version="1.0" encoding="utf-8"?>
<!-- Generator: Adobe Illustrator 17.0.0, SVG Export Plug-In . SVG Version: 6.00 Build 0)  -->
<!DOCTYPE svg PUBLIC "-//W3C//DTD SVG 1.0//EN" "http://www.w3.org/TR/2001/REC-SVG-20010904/DTD/svg10.dtd">
<svg version="1.0" xmlns="http://www.w3.org/2000/svg" xmlns:xlink="http://www.w3.org/1999/xlink" x="0px" y="0px" width="580px"
	 height="580px" viewBox="0 0 580 580" enable-background="new 0 0 580 580" xml:space="preserve">
<g id="地図記号">
	<g>
		<g>
			<path d="M181.043,462.68c0,49.955-40.499,90.453-90.451,90.453c-49.954,0-90.453-40.498-90.453-90.453
				c0-49.953,40.499-90.451,90.453-90.451C140.544,372.229,181.043,412.727,181.043,462.68z"/>
			<path d="M579.861,462.68c0,49.955-40.486,90.453-90.453,90.453c-49.937,0-90.452-40.498-90.452-90.453
				c0-49.953,40.515-90.451,90.452-90.451C539.375,372.229,579.861,412.727,579.861,462.68z"/>
		</g>
		<path d="M380.456,117.319c0,49.954-40.515,90.453-90.46,90.453c-49.953,0-90.452-40.499-90.452-90.453
			c0-49.953,40.499-90.452,90.452-90.452C339.941,26.867,380.456,67.366,380.456,117.319z"/>
	</g>
</g>
<g id="ガイド">
</g>
</svg>
