<?xml version="1.0" encoding="utf-8"?>
<!-- Generator: Adobe Illustrator 17.0.0, SVG Export Plug-In . SVG Version: 6.00 Build 0)  -->
<!DOCTYPE svg PUBLIC "-//W3C//DTD SVG 1.0//EN" "http://www.w3.org/TR/2001/REC-SVG-20010904/DTD/svg10.dtd">
<svg version="1.0" xmlns="http://www.w3.org/2000/svg" xmlns:xlink="http://www.w3.org/1999/xlink" x="0px" y="0px" width="580px"
	 height="580px" viewBox="0 0 580 580" enable-background="new 0 0 580 580" xml:space="preserve">
<g id="地図記号">
	<path d="M391.24,429.86c31.246-38.067,50.027-86.726,50.059-139.801C441.252,168.228,342.537,69.528,220.76,69.496
		C98.969,69.528,0.261,168.228,0.261,290.06c0,121.744,98.708,220.444,220.499,220.444c2.829,0,5.578-0.316,8.383-0.409
		l-0.418,0.409h351.012V429.86H391.24z M64.792,290.06c0.143-86.189,69.858-155.866,155.968-156.008
		c86.103,0.142,155.81,69.818,155.968,156.008c-0.158,86.07-69.865,155.78-155.968,155.936
		C134.65,445.84,64.934,376.13,64.792,290.06z"/>
</g>
<g id="ガイド">
</g>
</svg>
