<?xml version="1.0" encoding="UTF-8" standalone="no"?>
<svg
   xmlns:dc="http://purl.org/dc/elements/1.1/"
   xmlns:cc="http://creativecommons.org/ns#"
   xmlns:rdf="http://www.w3.org/1999/02/22-rdf-syntax-ns#"
   xmlns:svg="http://www.w3.org/2000/svg"
   xmlns="http://www.w3.org/2000/svg"
   xmlns:sodipodi="http://sodipodi.sourceforge.net/DTD/sodipodi-0.dtd"
   xmlns:inkscape="http://www.inkscape.org/namespaces/inkscape"
   version="1.1"
   id="Layer_1"
   x="0px"
   y="0px"
   width="32"
   height="32"
   viewBox="0 0 32 32"
   xml:space="preserve"
   sodipodi:docname="cafe.svg"
   inkscape:version="1.0 (4035a4fb49, 2020-05-01)"><metadata
   id="metadata9"><rdf:RDF><cc:Work
       rdf:about=""><dc:format>image/svg+xml</dc:format><dc:type
         rdf:resource="http://purl.org/dc/dcmitype/StillImage" /><dc:title></dc:title></cc:Work></rdf:RDF></metadata><defs
   id="defs7" /><sodipodi:namedview
   scale-x="1"
   showguides="true"
   pagecolor="#ffffff"
   bordercolor="#666666"
   borderopacity="1"
   objecttolerance="10"
   gridtolerance="10"
   guidetolerance="10"
   inkscape:pageopacity="0"
   inkscape:pageshadow="2"
   inkscape:window-width="1920"
   inkscape:window-height="1027"
   id="namedview5"
   showgrid="false"
   inkscape:snap-nodes="false"
   inkscape:zoom="7.9873918"
   inkscape:cx="-10.371191"
   inkscape:cy="11.291908"
   inkscape:window-x="-8"
   inkscape:window-y="-8"
   inkscape:window-maximized="1"
   inkscape:current-layer="Layer_1"
   inkscape:document-rotation="0" />
	<g
   transform="matrix(2.1284533,0,0,2.1404318,-0.04844334,0.02277721)"
   id="g835"><path
     id="path2-3"
     d="m 13.231347,15.019851 c 0.988846,0 1.789284,-0.8019 1.789284,-1.794959 V 1.7769359 c 0,-0.99306038 -0.800438,-1.79690834 -1.789284,-1.79690834 H 1.8322118 c -0.98884639,0 -1.78928283,0.80384796 -1.78928283,1.79690834 V 13.225013 c 0,0.993061 0.80043644,1.79496 1.78928283,1.79496 H 13.231347 Z"
     style="fill:#ffffff;stroke-width:0.1215"
     inkscape:connector-curvature="0" /><path
     id="path4"
     d="m 1.943875,0.42324107 c -0.8033328,0 -1.45712478,0.65674253 -1.45712478,1.46370003 V 13.114014 c 0,0.806957 0.65379198,1.462744 1.45712478,1.462744 h 11.17581 c 0.804283,0 1.457125,-0.655787 1.457125,-1.462744 V 1.8870605 c 10e-7,-0.8069576 -0.652841,-1.46370011 -1.457125,-1.46370011 H 1.9433991 Z"
     style="fill:#ef9235;fill-opacity:1;stroke-width:0.119139"
     inkscape:connector-curvature="0" /><path
     sodipodi:nodetypes="sccccccsssscccssssssssss"
     inkscape:connector-curvature="0"
     style="fill:#ffffff;fill-opacity:1"
     id="path2"
     d="M 11.53051,4.9608758 10.899856,4.9217518 10.978106,2.960876 H 2.4303658 L 2.7042349,8.5258422 C 2.7566591,10.734942 5.1059973,10.910852 6.4543658,10.936676 7.8648658,10.928176 10.066421,10.881711 10.349856,9 L 11.53051,8.960876 c 1.103994,-0.036584 2,-0.8954 2,-2 0,-1.1046 -0.89752,-1.9316048 -2,-2.0000002 z m 0,3 h -1.005399 c 0.0887,-0.3261 0.1358,-0.7012242 0.14,-1.0391242 l 0.156497,-0.9608758 h 0.708902 c 0.5523,0 1,0.4477 1,1 0,0.5523 -0.4477,1 -1,1 z m -0.943647,3.7957652 c 0,0.2761 -0.223901,0.5 -0.500001,0.5 H 3.0868624 c -0.2761,0 -0.5,-0.2239 -0.5,-0.5 0,-0.2761 0.2239,-0.5 0.5,-0.5 h 6.9999996 c 0.2761,0 0.500001,0.2239 0.500001,0.5 z" /></g>
</svg>
