<svg xmlns="http://www.w3.org/2000/svg" viewBox="0 0 30 30"><defs><style>.cls-1{fill:#ef9235;}.cls-2,.cls-3{fill:#fff;}.cls-3,.cls-4{stroke:#fff;stroke-miterlimit:10;}.cls-3{stroke-width:1.5px;}.cls-4{fill:none;stroke-linecap:round;stroke-width:0.89px;}</style></defs><g id="レイヤー_2" data-name="レイヤー 2"><g id="レイヤー_1-2" data-name="レイヤー 1"><rect class="cls-1" x="0.5" y="0.5" width="29" height="29" rx="4.5"/><path class="cls-2" d="M25,1a4,4,0,0,1,4,4V25a4,4,0,0,1-4,4H5a4,4,0,0,1-4-4V5A4,4,0,0,1,5,1H25m0-1H5A5,5,0,0,0,0,5V25a5,5,0,0,0,5,5H25a5,5,0,0,0,5-5V5a5,5,0,0,0-5-5Z"/><path class="cls-3" d="M6.56,23.15a1.45,1.45,0,0,1-1.8-1S2.62,15,2.62,15s0,0,0-.06A1.16,1.16,0,0,1,2.83,14l.06-.07,8.5-8.8A1.4,1.4,0,0,1,13,4.8l6.21,3.05a1.14,1.14,0,0,1,.61.57L22,15.7a1.44,1.44,0,0,1-1,1.8L6.63,23.13Z"/><path class="cls-2" d="M19.14,8.88a.62.62,0,0,0-.29-.31l-6.2-3a.61.61,0,0,0-.68.12l-8.5,8.81a.39.39,0,0,0-.06.3h0v0a0,0,0,0,1,0,0l.86,2.9v0l.49,1.62.76,2.57a.64.64,0,0,0,.79.43L20.8,16.72a.63.63,0,0,0,.43-.79l-.67-2.26-.43-1.45-1-3.34Z"/><path class="cls-1" d="M20.8,16.72,6.33,22.37a.64.64,0,0,1-.79-.43L3.41,14.76,19.14,8.88l2.09,7A.63.63,0,0,1,20.8,16.72Z"/><path class="cls-2" d="M4.78,19.37c-.12-.37-.58-1.95-.49-1.62s.6.2.6.2l15.24-5.73.43,1.45-15.17,6A.43.43,0,0,1,4.78,19.37Z"/><path class="cls-2" d="M12,5.65l-8.5,8.81c-.18.23,0,.75.53.59L18.76,9.68a.6.6,0,0,0,.09-1.11l-6.2-3A.61.61,0,0,0,12,5.65Z"/><path class="cls-1" d="M11.64,9.75a4.41,4.41,0,0,1-.6,0,2.37,2.37,0,0,1-1.53-.85,1.75,1.75,0,0,1-.33-1.37l.07-.56c.09-.78.18-1.59.32-2.39A1.88,1.88,0,0,1,11.49,3a2.15,2.15,0,0,1,1.39.5A15.21,15.21,0,0,1,15,5.84a2.13,2.13,0,0,1-.4,3,4.88,4.88,0,0,1-1.71.75,5.06,5.06,0,0,1-1.22.17Z"/><path class="cls-2" d="M11.49,3.38a1.72,1.72,0,0,1,1.13.4,15.18,15.18,0,0,1,2,2.28,1.76,1.76,0,0,1-.32,2.46,4.38,4.38,0,0,1-1.56.68,4.67,4.67,0,0,1-1.13.16,3.62,3.62,0,0,1-.54,0A1.6,1.6,0,0,1,9.57,7.55c.11-.94.21-2,.38-2.95a1.49,1.49,0,0,1,1.54-1.22m0-.79A2.26,2.26,0,0,0,9.18,4.47C9,5.29,9,6.1,8.86,6.89l-.07.57A2.08,2.08,0,0,0,9.2,9.1a2.7,2.7,0,0,0,1.82,1,4.12,4.12,0,0,0,.62,0,5.44,5.44,0,0,0,1.3-.18,5.29,5.29,0,0,0,1.82-.78,2.56,2.56,0,0,0,.54-3.55A15.76,15.76,0,0,0,13.15,3.2a2.52,2.52,0,0,0-1.66-.61Z"/><path class="cls-2" d="M10.84,7.33,10.69,8A.27.27,0,0,0,11,8.3h0a.26.26,0,0,0,.22-.37l-.26-.61A.05.05,0,0,0,10.84,7.33Z"/><path class="cls-2" d="M13.38,6.58l.48.46a.27.27,0,0,1-.06.43h0a.27.27,0,0,1-.39-.19l-.12-.66A.05.05,0,0,1,13.38,6.58Z"/><path class="cls-2" d="M12.3,4.7l.48.46a.27.27,0,0,1-.06.43h0a.27.27,0,0,1-.4-.19l-.11-.65A.06.06,0,0,1,12.3,4.7Z"/><path class="cls-2" d="M11.85,6.05l.38.54a.28.28,0,0,1-.15.42h0a.28.28,0,0,1-.35-.27l0-.66A.06.06,0,0,1,11.85,6.05Z"/><path class="cls-2" d="M10.83,5.2l.19.63a.27.27,0,0,1-.27.35h0a.27.27,0,0,1-.25-.36l.22-.62A.06.06,0,0,1,10.83,5.2Z"/><path class="cls-1" d="M25.22,13.67a4,4,0,0,1-1.61-.33A4.15,4.15,0,0,1,21.4,7.91a4.15,4.15,0,1,1,3.82,5.76Z"/><path class="cls-1" d="M22.77,19.47a4.15,4.15,0,0,1,0-8.3,4,4,0,0,1,1.61.33,4.15,4.15,0,0,1-1.61,8Z"/><path class="cls-1" d="M20.31,25.3a4.15,4.15,0,0,1,0-8.3,4.07,4.07,0,0,1,1.61.33,4.15,4.15,0,0,1-1.61,8Z"/><circle class="cls-2" cx="25.22" cy="9.52" r="3.15"/><circle class="cls-2" cx="22.77" cy="15.32" r="3.15"/><circle class="cls-2" cx="20.31" cy="21.15" r="3.15"/><line class="cls-4" x1="19.6" y1="22.82" x2="17.6" y2="27.55"/><line class="cls-4" x1="25.6" y1="8.63" x2="27.02" y2="5.28"/></g></g></svg>