<?xml version="1.0" encoding="UTF-8" standalone="no"?>
<svg
   xmlns:dc="http://purl.org/dc/elements/1.1/"
   xmlns:cc="http://creativecommons.org/ns#"
   xmlns:rdf="http://www.w3.org/1999/02/22-rdf-syntax-ns#"
   xmlns:svg="http://www.w3.org/2000/svg"
   xmlns="http://www.w3.org/2000/svg"
   xmlns:xlink="http://www.w3.org/1999/xlink"
   xmlns:sodipodi="http://sodipodi.sourceforge.net/DTD/sodipodi-0.dtd"
   xmlns:inkscape="http://www.inkscape.org/namespaces/inkscape"
   version="1.1"
   id="Layer_1"
   x="0px"
   y="0px"
   width="12"
   height="12"
   viewBox="0 0 15 15"
   style="enable-background:new 0 0 15 15;"
   xml:space="preserve"
   sodipodi:docname="fire_extinguisher.svg"
   inkscape:version="0.92.3 (2405546, 2018-03-11)"><metadata
   id="metadata9"><rdf:RDF><cc:Work
       rdf:about=""><dc:format>image/svg+xml</dc:format><dc:type
         rdf:resource="http://purl.org/dc/dcmitype/StillImage" /></cc:Work></rdf:RDF></metadata><defs
   id="defs7"><inkscape:perspective
     sodipodi:type="inkscape:persp3d"
     inkscape:vp_x="0 : 7.5 : 1"
     inkscape:vp_y="0 : 1000 : 0"
     inkscape:vp_z="15 : 7.5 : 1"
     inkscape:persp3d-origin="7.5 : 5 : 1"
     id="perspective857" /><clipPath
     clipPathUnits="userSpaceOnUse"
     id="clipPath14"><use
       x="0"
       y="0"
       xlink:href="#g10"
       id="use16"
       width="100%"
       height="100%" /></clipPath><clipPath
     clipPathUnits="userSpaceOnUse"
     id="clipPath23"><use
       x="0"
       y="0"
       xlink:href="#g19"
       id="use25"
       width="100%"
       height="100%" /></clipPath><clipPath
     clipPathUnits="userSpaceOnUse"
     id="clipPath32"><use
       x="0"
       y="0"
       xlink:href="#g28"
       id="use34"
       width="100%"
       height="100%" /></clipPath><clipPath
     clipPathUnits="userSpaceOnUse"
     id="clipPath850"><g
       id="use852"
       inkscape:label="Clip"><path
         inkscape:connector-curvature="0"
         id="path880"
         d="M 10.798125,7.7785411 C 10.78472,10.863802 11.338269,13.374421 7.4088075,13.364952 3.840679,13.356352 4.3430938,11.034148 4.3430938,7.9488586 c 0,-3.7835914 -0.019272,-4.1195779 2.912428,-4.1216818 3.5788872,-0.00257 3.5596342,0.031519 3.5426032,3.9513643 z"
         inkscape:transform-center-y="-0.25547613"
         inkscape:transform-center-x="1.0389363"
         style="opacity:1;fill:#000000;fill-opacity:1;stroke:#ffffff;stroke-width:0;stroke-miterlimit:4;stroke-dasharray:none;stroke-opacity:1"
         sodipodi:nodetypes="sssss" /></g></clipPath></defs><sodipodi:namedview
   pagecolor="#ffffff"
   bordercolor="#666666"
   borderopacity="1"
   objecttolerance="10"
   gridtolerance="10"
   guidetolerance="10"
   inkscape:pageopacity="0"
   inkscape:pageshadow="2"
   inkscape:window-width="1920"
   inkscape:window-height="1027"
   id="namedview5"
   showgrid="false"
   inkscape:snap-nodes="true"
   inkscape:zoom="30.6"
   inkscape:cx="3.7138476"
   inkscape:cy="6.1267573"
   inkscape:window-x="-8"
   inkscape:window-y="-8"
   inkscape:window-maximized="1"
   inkscape:current-layer="Layer_1" />
	<path
   inkscape:connector-curvature="0"
   style="fill:#231f20;stroke-width:0.12149964"
   d="m 13.231347,15.019851 c 0.988846,0 1.789284,-0.8019 1.789284,-1.794959 V 1.7769359 c 0,-0.99306038 -0.800438,-1.79690834 -1.789284,-1.79690834 H 1.8322118 c -0.98884639,0 -1.78928283,0.80384796 -1.78928283,1.79690834 V 13.225013 c 0,0.993061 0.80043644,1.79496 1.78928283,1.79496 H 13.231347 Z"
   id="path2-3" /><path
   inkscape:connector-curvature="0"
   style="fill:#ffffff;stroke-width:0.11913925"
   d="m 1.943875,0.42324107 c -0.8033328,0 -1.45712478,0.65674253 -1.45712478,1.46370003 V 13.114014 c 0,0.806957 0.65379198,1.462744 1.45712478,1.462744 h 11.17581 c 0.804283,0 1.457125,-0.655787 1.457125,-1.462744 V 1.8870605 c 10e-7,-0.8069576 -0.652841,-1.46370011 -1.457125,-1.46370011 H 1.9433991 Z"
   id="path4" /><g
   id="g12"
   clip-path="url(#clipPath14)"><g
     inkscape:label="Clip"
     id="g10"><g
       id="g21"
       clip-path="url(#clipPath23)"><g
         inkscape:label="Clip"
         id="g19"><g
           id="g30"
           clip-path="url(#clipPath32)"><g
             inkscape:label="Clip"
             id="g28" /></g></g></g></g></g>
<g
   style="fill:#000000;stroke:none"
   transform="matrix(0.00106711,0,0,-9.5104011e-4,2.9141311,13.618413)"
   id="g4"><path
     inkscape:connector-curvature="0"
     d="m 2065,12794 c -500,-81 -835,-470 -837,-974 -1,-226 80,-430 230,-577 61,-61 63,-63 40,-72 -260,-99 -625,-353 -927,-646 C 304,10266 142,10046 45,9810 9,9725 5,9706 5,9630 c 0,-73 4,-93 29,-144 61,-126 203,-215 342,-216 56,0 140,26 196,61 62,40 106,89 215,244 345,487 648,740 1114,929 104,42 391,136 416,136 1,0 3,-151 3,-335 0,-260 -3,-336 -12,-339 -241,-70 -507,-215 -722,-395 C 1147,9204 884,8741 815,8217 802,8113 800,7653 800,4261 800,1927 804,403 809,374 841,207 935,86 1077,28 L 1135,5 2860,2 c 1930,-3 1813,-7 1927,67 66,42 107,90 147,170 59,116 56,-150 56,4009 0,2600 -3,3854 -10,3920 -53,483 -243,888 -585,1241 -272,281 -562,464 -883,557 -10,3 -12,84 -10,381 2,208 6,377 11,376 4,-2 340,-3 747,-3 h 740 v -157 -158 l 1578,-239 c 867,-131 1690,-256 1827,-277 138,-21 253,-39 258,-39 4,0 7,567 7,1260 v 1261 l -32,-6 c -25,-4 -1452,-212 -1888,-275 -96,-14 -992,-144 -1310,-191 -151,-22 -312,-45 -357,-51 l -83,-11 v -173 -174 h -745 -745 v 270 270 h -214 -215 l -6,48 c -10,77 -52,199 -94,270 -123,209 -326,360 -570,424 -75,19 -280,32 -346,22 z m 210,-519 c 83,-22 147,-60 206,-122 195,-206 138,-544 -114,-668 -246,-121 -534,8 -602,270 -39,152 7,308 123,417 108,101 248,139 387,103 z"
     id="path2" /></g></svg>