<?xml version="1.0" encoding="iso-8859-1"?>
<!-- Uploaded to: SVG Repo, www.svgrepo.com, Generator: SVG Repo Mixer Tools -->
<!DOCTYPE svg PUBLIC "-//W3C//DTD SVG 1.1//EN" "http://www.w3.org/Graphics/SVG/1.1/DTD/svg11.dtd">
<svg fill="#000000" height="800px" width="800px" version="1.1" id="Capa_1" xmlns="http://www.w3.org/2000/svg" xmlns:xlink="http://www.w3.org/1999/xlink" 
	 viewBox="0 0 296.999 296.999" xml:space="preserve">
<g>
	<path d="M296.617,267.291L265.83,159.396c-1.222-4.281-5.133-7.232-9.583-7.232h-70.799c14.204-19.17,28.03-44.434,28.03-70.154
		c0-35.842-29.148-65.002-64.977-65.002c-35.83,0-64.979,29.16-64.979,65.002c0,25.721,13.826,50.984,28.031,70.154h-70.8
		c-4.45,0-8.361,2.951-9.583,7.232L0.383,267.291c-0.857,3.006-0.256,6.242,1.628,8.738c1.883,2.496,4.828,3.963,7.955,3.963
		h277.068c3.127,0,6.072-1.467,7.955-3.963C296.873,273.533,297.474,270.297,296.617,267.291z M148.501,36.939
		c24.838,0,45.046,20.219,45.046,45.07c0,33.348-31.124,68.463-45.046,82.502c-13.923-14.039-45.048-49.154-45.048-82.502
		C103.453,57.158,123.662,36.939,148.501,36.939z M128.117,172.097c7.473,8.078,13.078,13.07,13.797,13.705
		c1.883,1.656,4.234,2.486,6.587,2.486c2.353,0,4.705-0.83,6.587-2.486c0.719-0.635,6.324-5.627,13.796-13.705h79.843l2.77,9.707
		l-38.549,32.125l-167.9-30.527l3.227-11.305H128.117z M76.247,260.06v-50.727l116.744,21.227l-35.401,29.5H76.247z M39.552,202.662
		l16.763,3.047v54.352H23.174L39.552,202.662z M188.724,260.06l68.753-57.295l16.349,57.295H188.724z"/>
	<path d="M175.311,82.01c0-14.861-12.027-26.951-26.811-26.951c-14.784,0-26.813,12.09-26.813,26.951
		c0,14.859,12.028,26.951,26.813,26.951C163.284,108.961,175.311,96.869,175.311,82.01z M141.62,82.01
		c0-3.871,3.087-7.02,6.881-7.02c3.793,0,6.879,3.148,6.879,7.02s-3.086,7.02-6.879,7.02C144.707,89.029,141.62,85.881,141.62,82.01
		z"/>
</g>
</svg>