<?xml version="1.0" encoding="UTF-8" standalone="no"?>
<svg
   xmlns:dc="http://purl.org/dc/elements/1.1/"
   xmlns:cc="http://creativecommons.org/ns#"
   xmlns:rdf="http://www.w3.org/1999/02/22-rdf-syntax-ns#"
   xmlns:svg="http://www.w3.org/2000/svg"
   xmlns="http://www.w3.org/2000/svg"
   xmlns:sodipodi="http://sodipodi.sourceforge.net/DTD/sodipodi-0.dtd"
   xmlns:inkscape="http://www.inkscape.org/namespaces/inkscape"
   version="1.1"
   id="Layer_1"
   x="0px"
   y="0px"
   width="32"
   height="32"
   viewBox="0 0 32 32"
   xml:space="preserve"
   sodipodi:docname="shops.svg"
   inkscape:version="1.0 (4035a4fb49, 2020-05-01)"><metadata
   id="metadata9"><rdf:RDF><cc:Work
       rdf:about=""><dc:format>image/svg+xml</dc:format><dc:type
         rdf:resource="http://purl.org/dc/dcmitype/StillImage" /><dc:title /></cc:Work></rdf:RDF></metadata><defs
   id="defs7" /><sodipodi:namedview
   scale-x="1"
   showguides="true"
   pagecolor="#ffffff"
   bordercolor="#666666"
   borderopacity="1"
   objecttolerance="10"
   gridtolerance="10"
   guidetolerance="10"
   inkscape:pageopacity="0"
   inkscape:pageshadow="2"
   inkscape:window-width="1920"
   inkscape:window-height="1017"
   id="namedview5"
   showgrid="false"
   inkscape:snap-nodes="false"
   inkscape:zoom="22.591756"
   inkscape:cx="18.995998"
   inkscape:cy="13.547703"
   inkscape:window-x="-8"
   inkscape:window-y="-8"
   inkscape:window-maximized="1"
   inkscape:current-layer="Layer_1"
   inkscape:document-rotation="0" />
	<path
   inkscape:connector-curvature="0"
   style="fill:#ffffff;stroke-width:0.259334"
   d="m 28.113861,32.171744 c 2.104712,0 3.808407,-1.716412 3.808407,-3.841987 V 3.8261873 c 0,-2.125578 -1.703695,-3.84615974 -3.808407,-3.84615974 H 3.8513339 c -2.1047133,0 -3.80840493,1.72058174 -3.80840493,3.84615974 V 28.330016 c 0,2.125579 1.70369163,3.841989 3.80840493,3.841989 H 28.113861 Z"
   id="path2-3" /><path
   inkscape:connector-curvature="0"
   style="fill:#ef9235;fill-opacity:1;stroke-width:0.254294"
   d="m 4.0890038,0.92869586 c -1.7098563,0 -3.10142203,1.40571264 -3.10142203,3.13295004 V 28.09243 c 0,1.727236 1.39156573,3.130904 3.10142203,3.130904 H 27.876193 c 1.711879,0 3.101423,-1.403668 3.101423,-3.130904 V 4.0619015 c 2e-6,-1.7272377 -1.389542,-3.13295025 -3.101423,-3.13295025 H 4.0879909 Z"
   id="path4" />
<rect
   style="fill:#ffffff;fill-rule:evenodd;stroke:none;stroke-width:16.228;stroke-linecap:round;stroke-linejoin:round;paint-order:stroke markers fill"
   id="rect838"
   width="11.324326"
   height="19.180231"
   x="-27.433567"
   y="6.2018318"
   ry="0.69248706"
   transform="matrix(-0.00121223,-0.99999927,0.99999991,-4.1974004e-4,0,0)" /><path
   id="rect838-9"
   style="fill:#ffffff;fill-rule:evenodd;stroke:none;stroke-width:17.7442;stroke-linecap:round;stroke-linejoin:round;paint-order:stroke markers fill"
   d="m 25.399028,4.4089903 -18.8467405,0.00552 c -0.046512,1.67e-5 -0.092261,0.00998 -0.138283,0.014736 H 6.2704704 C 5.7071367,4.4290509 5.2851902,4.7849995 5.1659573,5.2930918 5.0793119,5.4529079 5.0147898,5.6258604 4.9856643,5.8088177 L 3.6220894,14.37539 c -0.122946,0.772313 0.3778304,1.394567 1.1220174,1.394303 l 3.1927606,-0.0019 c 0.047189,0.005 0.094078,0.01471 0.1417838,0.01475 l 18.8484908,0.0074 c 0.744187,2.64e-4 1.243212,-0.621991 1.120267,-1.394302 L 26.683834,5.8309202 C 26.655445,5.6525736 26.593758,5.4827528 26.510542,5.3262457 26.408696,4.7906582 25.981361,4.4087834 25.399028,4.4089903 Z" /><path
   d="m 21.888912,4.6980826 -12.187436,0.00527 c -0.029949,1.59e-5 -0.059679,0.0095 -0.089408,0.014033 H 9.5192569 C 9.1549671,4.717187 8.8821154,5.0562215 8.8050127,5.5401697 8.7489931,5.6923914 8.7072475,5.8571255 8.6884265,6.0313888 L 7.8066313,14.190892 c -0.079503,0.735612 0.2443281,1.328297 0.7255637,1.328045 l 2.064632,-0.0019 c 0.03069,0.0048 0.06083,0.01402 0.09169,0.01404 l 12.188577,0.007 c 0.481235,2.51e-4 0.803933,-0.592434 0.724431,-1.328046 L 22.719748,6.0524439 C 22.701263,5.8825722 22.661512,5.7208209 22.607677,5.5717507 22.54182,5.061614 22.265459,4.6978854 21.888905,4.6980826 Z"
   style="fill:#ef9235;fill-opacity:1;fill-rule:evenodd;stroke:none;stroke-width:13.9258;stroke-linecap:round;stroke-linejoin:round;paint-order:stroke markers fill"
   id="rect838-9-9" /><path
   d="m 18.040918,4.616315 -4.843564,0.00542 c -0.01196,1.63e-5 -0.02371,0.00977 -0.03554,0.014433 h -0.0369 c -0.144775,-1.967e-4 -0.253215,0.3484277 -0.283857,0.8460652 -0.02226,0.1565276 -0.03885,0.3259214 -0.04634,0.505114 l -0.350418,8.3903048 c -0.0316,0.756419 0.0971,1.36587 0.288356,1.365611 l 0.820531,-0.0019 c 0.01213,0.0049 0.02418,0.01441 0.03644,0.01444 l 4.844012,0.0072 c 0.191254,2.59e-4 0.319504,-0.609193 0.287906,-1.365612 L 18.371108,6.0089863 C 18.363814,5.8343096 18.347953,5.6679828 18.326573,5.5146962 18.300402,4.9901293 18.190574,4.6161122 18.040918,4.616315 Z"
   style="fill:#ffffff;fill-rule:evenodd;stroke:none;stroke-width:8.90234;stroke-linecap:round;stroke-linejoin:round;paint-order:stroke markers fill"
   id="rect838-9-4" /><rect
   style="fill:#ef9235;fill-opacity:1;fill-rule:evenodd;stroke:none;stroke-width:13.2393;stroke-linecap:round;stroke-linejoin:round;paint-order:stroke markers fill"
   id="rect966"
   width="5.5121465"
   height="8.0379648"
   x="17.137739"
   y="18.162905"
   ry="0.43813017" /><path
   id="rect966-1"
   style="fill:#ef9235;fill-opacity:1;fill-rule:evenodd;stroke:none;stroke-width:8.91746;stroke-linecap:round;stroke-linejoin:round;paint-order:stroke markers fill"
   d="m 8.7159786,18.658325 v 3.647645 h 2.4238044 v -3.647645 z m 3.0707464,0 v 3.647645 h 2.441624 v -3.647645 z" /></svg>
